<?xml version="1.0" standalone="no"?>
<!DOCTYPE svg PUBLIC "-//W3C//DTD SVG 1.1//EN" "http://www.w3.org/Graphics/SVG/1.1/DTD/svg11.dtd" >
<svg xmlns="http://www.w3.org/2000/svg">
<metadata>
This is a custom SVG webfont generated by Font Squirrel.
Copyright   : Typeface  your company 2006 All Rights Reserved
Designer    : Corien Bennink
Foundry URL : httpwwwbenninkinfofonts
</metadata>
<defs>
<font id="webfont63S39lgj" horiz-adv-x="681" >
<font-face units-per-em="2048" ascent="1638" descent="-410" />
<missing-glyph horiz-adv-x="1200" />
<glyph unicode=" "  horiz-adv-x="1200" />
<glyph unicode="&#x09;" horiz-adv-x="1200" />
<glyph unicode="&#xa0;" horiz-adv-x="1200" />
<glyph unicode="!" horiz-adv-x="841" d="M248 -33q-31 147 45 193q78 47 166 -45q39 -168 -70 -209q-107 -40 -141 61zM289 545l45 485v2l33 350q10 80 63 105q68 29 96 24q35 -2 58 -55q6 -100 -2 -166q-45 -397 -74 -526q-27 -123 -21 -334l-2 -4q-12 -108 -43 -129l-24 -25q-35 4 -105 33q-36 129 -24 240z " />
<glyph unicode="&#x22;" horiz-adv-x="749" d="M45 1284v12q0 162 115 287q25 12 37 12q74 0 84 -135q0 -139 -91 -327q-14 -18 -28 -19q-74 0 -107 96zM381 1442q0 176 96 241l12 5q129 -33 129 -211v-11q0 -176 -118 -219l-19 -4q-100 25 -100 199z" />
<glyph unicode="#" horiz-adv-x="1544" d="M12 586q0 78 113 147q35 35 164 121q37 55 37 145v33q0 39 -47 344v10q0 35 47 41q150 -37 149 -149q14 -47 29 -246l12 -10h14q90 0 252 102v150q0 164 97 215q43 0 94 -51q-23 -168 -23 -215q2 -33 66 -33q147 43 403 43q80 -131 -98 -174h-61q-309 -2 -310 -70 q-25 -121 -32 -315l14 -4l336 125h4q104 20 137 -13.5t-6 -122.5q0 -45 -174 -79q-174 -39 -291 -80l53 -178q45 -150 90 -277l25 -39v-12q-45 -25 -100 -66q-72 0 -154 125q-76 166 -102 377q-274 -84 -275 -111l-6 -61v-59l18 -66q20 88 58 88q43 0 92 -84v-10 q-45 -188 -117 -188q-127 0 -184 147q-20 78 -21 131v8q-25 0 -153 -92h-15q-37 0 -67 84q0 37 33 105q51 57 206 122v66q-3 120 -30 135h-21q-31 0 -125 -117l-18 -4l-62 4v-4q-51 1 -51 62zM477 494q217 63 217 84v247h-4q-205 -43 -205 -94q-14 -83 -8 -237z" />
<glyph unicode="$" horiz-adv-x="1226" d="M0 743q0 209 406 467q66 37 73 50q-18 195 -39 290q0 23 39 49q12 33 47 33h15q41 0 84 -57q18 -66 49 -100q8 -31 14 -115q104 37 125 37h4q147 0 207 -170l8 -49v-15q-16 -129 -114 -129q-31 0 -52 58q-20 53 -63 53h-25q-55 0 -67 -19q0 -76 20 -143l2 -59v-23l12 -59 v-148q0 -6 148 -24q145 -37 211 -103q63 -76 63 -141q0 -184 -452 -406l6 -200l-4 -92v-33q-6 -123 -115 -76q-53 0 -53 109q-27 156 -27 229q-84 -14 -153 -14h-11q-147 0 -168 45q-37 33 -36 63q16 119 112 119l135 -33l121 27v317l-168 -6q-218 0 -288 111 q-66 81 -66 157zM211 772q0 -23 88 -53q98 -18 221 -19v5l-8 137v92q0 92 -18 92q-121 -68 -269 -217q-14 -14 -14 -31v-6zM721 207h6q172 43 227 125q41 74 41 114q-37 47 -196 48h-54v-9q0 -115 -20 -153v-35z" />
<glyph unicode="%" horiz-adv-x="1226" d="M53 -217q-106 57 295 602l649 1018q195 86 215 76q100 -55 -133 -355l-202 -350l-33 -47q-354 -606 -707 -926q-61 -28 -84 -18zM121 993v15q0 129 78 243q57 49 161 68q39 6 76 6q70 -10 119 -47q78 -59 78 -162q0 -86 -51 -190q-129 -94 -224 -115q-43 -14 -77 -14 q-74 0 -131 75q-29 55 -29 121zM297 1028q6 -45 33 -72q27 -2 53 11q23 12 55 47q14 27 15 67q0 51 -37 76q-12 4 -15 4h-8q-33 -4 -63 -31q-31 -47 -33 -102zM664 74v14q0 133 79 246q45 43 162 65l32.5 4.5t28 3.5t15.5 1q68 -10 119 -50q78 -59 78 -161q0 -86 -52 -191 q-123 -90 -225 -112q-49 -16 -76 -17q-76 0 -131 78q-30 56 -30 119zM834 106q6 -47 30 -71q31 -4 54 8q27 14 57 47q14 27 14 70q0 53 -37 76q-12 4 -14 4h-8q-35 -4 -66 -31q-26 -44 -30 -103z" />
<glyph unicode="&#x26;" horiz-adv-x="3477" d="M0 969v6q0 49 63 63q94 0 95 113q61 1024 94 1024l6 4q96 0 117 -180v-37q0 -80 -76 -580q-6 -236 45 -272q242 29 242 111l4 69l-39 602q0 125 39 158q123 0 160 -696q18 -152 98 -152q0 -10 375 -28q100 -27 116 -64v-12q0 -27 -182 -31h-192q-152 -6 -170 -41v-41 q25 -243 123 -455q113 -35 112 -53v-10q0 -78 -106 -78q-53 0 -193 287q-20 76 -35 76q-34 0 -129 -351q-98 -240 -258 -239q-176 0 -176 293v360q0 78 -127 123zM29 -238q0 139 280 164q268 -25 269 -116v-7q-55 -16 -123 -16q-137 0 -197 2q-59 -23 -55 -51q2 -25 63 -43 l129 6q381 -8 1676 582q279 180 864 198l246 76q57 0 81 -51q-76 -111 -217 -189q-252 -139 -331 -139l-35 23q23 53 180 141q-469 -41 -1266 -422q-919 -356 -1296 -356q-195 0 -256 147zM240 657q0 -256 88 -366q129 0 233 483l12 148q0 123 -47 122q-86 0 -274 -94z M1237 682v16q0 39 57 54q82 -18 82 -35v-60q0 -63 -63 -63q-76 0 -76 88zM1673 827q0 147 123 662l6 57l-6 195q0 57 47 98q72 0 88 -176v-41q0 -76 -76 -700l-6 -76q10 -139 35 -141q23 0 561 333q143 76 217 76q47 0 54 -59q-29 -37 -275 -174q-494 -317 -586 -318 q-115 0 -163 148zM2920 676v47q0 29 54 51q92 -18 92 -63l6 -66q-12 -35 -63 -35q-89 19 -89 66z" />
<glyph unicode="'" horiz-adv-x="755" d="M238 1378v15q0 187 129 325q27 14 43 15q84 0 96 -154q0 -152 -105 -373q-16 -23 -30 -22q-83 0 -123 110z" />
<glyph unicode="(" horiz-adv-x="827" d="M180 358l8 172q0 328 152 644q98 141 303 204l55 11l2 -3v-163q0 -20 -43 -33q-225 -154 -251 -291q-57 -211 -35 -573v-9q27 -211 139 -317q121 106 147 106h25l10 -10v-200q0 -43 -178 -86h-4q-127 0 -236 194q-71 161 -94 354z" />
<glyph unicode=")" horiz-adv-x="696" d="M66 -23q127 -6 231 109q72 432 51 817q-18 336 -137 410q-23 16 -47 16h-37l-6 8l-19 150q0 31 105 31q113 -33 201 -136q133 -164 133 -444q37 -479 -90 -922q-160 -215 -357 -245q-112 100 -28 206z" />
<glyph unicode="*" horiz-adv-x="796" />
<glyph unicode="+" horiz-adv-x="1193" />
<glyph unicode="," horiz-adv-x="944" d="M500 -90q0 187 129 326q27 14 43 14q84 0 96 -154q0 -152 -104 -372q-16 -23 -31 -23q-82 0 -123 113l-10 82v14z" />
<glyph unicode="-" horiz-adv-x="1761" d="M311 678q-6 86 295 110q289 14 697 -4q90 -80 90 -94q6 -82 -185 -94l-241 -14l-29 -2q-367 -18 -596 57q-31 25 -31 41z" />
<glyph unicode="." horiz-adv-x="1136" d="M678 0q-35 164 49 215t184 -53q47 -188 -73 -232q-119 -43 -160 70z" />
<glyph unicode="/" horiz-adv-x="1572" d="M59 -184q-115 63 330 667l844 1264q217 96 237 84q115 -61 -147 -393l-346 -520l-37 -54q-401 -686 -786 -1028q-72 -34 -95 -20z" />
<glyph unicode="0" horiz-adv-x="925" d="M0 545v43q0 354 135 674q84 127 277 182q106 23 133 22q106 -27 200 -137q133 -164 134 -442q0 -233 -86 -529q-209 -252 -383 -315q-80 -43 -134 -43q-129 0 -223 211q-53 152 -53 334zM193 575q20 -240 100 -362q88 -16 166 45q82 63 178 240q45 137 45 344 q0 266 -119 385q-25 18 -47 18h-20q-104 -12 -205 -155q-88 -222 -98 -515z" />
<glyph unicode="1" horiz-adv-x="507" d="M55 170l78 770v4l35 350q8 78 63 103q68 28 105 30q37 -4 57 -55q6 -100 -2 -166q-47 -412 -80 -667q-33 -258 -26 -469l-2 -7q-12 -109 -72 -141l-27 -22q-20 2 -102 32q-39 136 -27 238z" />
<glyph unicode="2" horiz-adv-x="1736" d="M92 41q14 229 438 496q256 117 342 116q127 0 275 -67q66 84 137 241l19 203q-29 78 -111 121q-88 45 -236 43q-152 -2 -204 -76q-49 -68 -43 -141q4 -35 -27 -54.5t-92 -21.5q-47 0 -84 168v8q76 260 401 316q272 -10 307 -47q119 -61 164 -103q74 -76 101 -233 q0 -35 -13 -148q-12 -121 -114 -297q-45 -96 -45 -131q98 -12 280 -225q18 -92 19 -133v-4q0 -35 -43 -35q-78 0 -236 151q-82 82 -145 138l-56 -84l-106 -142q-109 -102 -240 -170q-125 -92 -303 -143q-261 12 -307 61q-70 76 -78 193zM324 72q0 -78 61 -78 q133 -12 444 229q78 74 134 183q-41 41 -248 14l-140 -72q-82 -47 -188 -166q-59 -75 -63 -110z" />
<glyph unicode="3" horiz-adv-x="1228" d="M-207 94q0 70 174 82q16 0 375 -10q168 -27 348 -27q175 0 203 49q0 104 -72 189q-70 82 -166 137q-270 111 -323 139q-74 37 -74 97q0 98 264 155q170 49 170 139q0 33 -135 115l-215 6q-106 -47 -129 -47h-14q-84 0 -97 123v16q0 66 29 66q102 41 258 55q27 0 189 -22 q158 -23 313 -154q90 -94 90 -147q-25 -145 -78 -211q-12 -27 -112 -66q-35 -27 -86 -53l53 -49l229 -195q127 -199 127 -348v-8q0 -213 -379 -213q-144 0 -780 43h-6q-109 0 -152 119z" />
<glyph unicode="4" horiz-adv-x="1333" d="M12 586q94 178 518 694q162 180 281 252q83 40 147 6q115 -61 17 -336q-145 -367 -57 -411l8 -5q51 -25 264 9q240 0 340 -56l4 -16l-6 -8q-59 -96 -94 -141.5t-48 -36.5q-377 20 -440 -5q-78 -53 -100 -90q8 -57 26 -241q8 -233 -30 -414q-6 -51 -217 14q0 98 10 279 q-12 127 2 250q8 119 -27 153q-119 47 -301 17q-184 -8 -276 32q-33 29 -21 54zM336 731q102 8 182 2q63 10 176 10l17 125q10 236 30 299l7 84l-287 -346z" />
<glyph unicode="5" horiz-adv-x="1284" d="M68 43q31 127 135 115l145 -52q285 16 475 82q139 63 156 166q-98 133 -436 158l-205 -33q-132 15 -129 43q-18 168 -2 307l51 316q61 57 246 133q950 240 993 49l2 -55l-2 -17q-31 -139 -141 -127q-469 104 -920 -131l-10 -272q481 -70 543 -111q82 -10 205 -129 q55 -92 47 -159q-23 -197 -500 -369q-227 -84 -432 -61l-13 2q-160 18 -178 69q-34 41 -30 76z" />
<glyph unicode="6" horiz-adv-x="1384" d="M119 453q0 126 43 209l92 276q150 281 508 442q102 70 164 39q41 -23 22 -94q4 -2 -2 -25l-16 -26l-10 -27q-309 -152 -474 -409l-100 -316l16 -30q139 84 308 133q213 27 309 14q150 -47 192 -70q154 -115 164 -245l-12 -162q-162 -188 -233 -199q-218 -95 -375 -86 q-117 4 -219 27q-121 29 -209 76q-49 23 -133 153q-60 132 -35 320zM387 334q-78 -66 35 -180q207 -115 444 -60q168 27 230 107q96 121 2 194l-43 23q-154 82 -447 20q-101 -30 -221 -104z" />
<glyph unicode="7" horiz-adv-x="1103" d="M119 1282q31 74 266 61q395 45 516 -4q102 -43 137 -200q2 -66 -63 -230q-133 -319 -578 -1102q-43 -29 -82 -12q-80 33 -20 221l2 2l360 756q57 86 84 152q92 137 45 184l-18 12l-6 4q-70 29 -440 -14q-106 18 -142 35l-8 4q-35 51 -53 131z" />
<glyph unicode="8" horiz-adv-x="1251" d="M164 946l8 62l-2 4v4q0 55 57 196q86 181 308 277q141 53 268 53h8q29 0 74 -57l4 -2h22q72 70 113 84q57 0 88 -140q29 -98 29 -165v-25q35 -158 -66 -199l-57 -12q-78 0 -107 260q-92 39 -176 39q-76 0 -268 -90q-45 -33 -70 -166v-35q0 -133 21 -133q133 -53 250 -53 h59q209 0 317 102q90 104 164 105q94 0 109 -135q0 -100 -156 -207q-51 -53 -51 -97v-16q0 -37 72 -115q33 -68 32 -145q0 -178 -133 -328q-59 -55 -403 -133l-33 -4q-129 0 -278 113q-150 141 -150 336q0 193 168 366v2q0 10 -33 21l-8 12l-10 -4q-53 0 -127 110 q-16 0 -35 89q-4 -1 -8 26zM453 193q0 -78 98 -115l63 -8h4q180 0 351 145q39 129 39 188q-45 137 -285 187l-72 4q-254 -147 -198 -334v-67z" />
<glyph unicode="9" horiz-adv-x="1304" d="M121 874q18 113 112 252q92 135 230 226q96 39 252 90q92 6 102 4l4 -2q195 -35 232 -254q15 -83 37 -332q8 -281 -5 -366l-55 -435q-31 -184 -131 -166q-106 18 -76 332q45 371 54 504q-57 10 -248 -139q-258 -90 -367 -72q-72 12 -119 78q-47 130 -22 280zM322 905 q-18 -90 12 -170q96 -18 221 35q141 39 258 201q29 43 31 57q12 170 -6 180q-15 9 -80 19q-213 -47 -242 -94q-155 -117 -194 -228z" />
<glyph unicode=":" horiz-adv-x="712" d="M332 0q-35 164 49 215t184 -53q47 -188 -76 -232q-116 -43 -157 70zM332 786q-35 166 49 217.5t184 -53.5q47 -188 -76 -231q-118 -44 -157 67z" />
<glyph unicode=";" horiz-adv-x="743" d="M389 -25q0 187 129 326q27 14 43 14q84 0 96 -153q0 -156 -102 -373q-14 -20 -35 -20q-82 0 -121 110l-10 82v14zM408 774q-35 166 49 217t184 -53q45 -188 -76 -231q-118 -44 -157 67z" />
<glyph unicode="&#x37e;" horiz-adv-x="743" d="M389 -25q0 187 129 326q27 14 43 14q84 0 96 -153q0 -156 -102 -373q-14 -20 -35 -20q-82 0 -121 110l-10 82v14zM408 774q-35 166 49 217t184 -53q45 -188 -76 -231q-118 -44 -157 67z" />
<glyph unicode="&#x3c;" horiz-adv-x="1318" d="M158 569q61 168 424 328q233 84 288 84q0 16 156 45l2 4l12 4q18 -2 90 -80q-84 -111 -227 -149q-135 -39 -268 -107q-137 -47 -209 -94v-14q51 -43 106 -72l586 6q43 0 88 -59q0 -41 -104 -127h-10l-435 -14q-362 34 -479 202z" />
<glyph unicode="=" horiz-adv-x="1357" d="M225 422q-6 86 244 110q236 14 569 -4q72 -78 72 -94q4 -41 -34 -65.5t-115 -30.5l-199 -14h-25q-301 -18 -485 55q-27 31 -27 43zM233 766q-4 43 56.5 70.5t185.5 40.5q238 14 572 -5q72 -78 71 -94q4 -41 -33.5 -65.5t-115.5 -30.5l-199 -12l-22 -2q-301 -18 -490 57 q-25 25 -25 41z" />
<glyph unicode="&#x3e;" horiz-adv-x="1230" d="M106 924q4 41 109 118h12l435 -10q360 -55 466 -229l19 -45q-72 -166 -442 -303q-236 -68 -295 -66q0 -16 -156 -39l-4 -2l-10 -4q-27 8 -86 84q92 109 233 137q133 31 275 92q137 37 212 82l3 15q-39 39 -101 77l-588 27q-41 5 -82 66z" />
<glyph unicode="?" horiz-adv-x="1910" d="M420 1407v10q0 68 188 160q72 72 256 109q96 27 170 26q229 0 510 -82q115 -70 154 -147q18 -31 18 -45q-18 -121 -49 -156q-4 -23 -154 -158q-96 -127 -196 -243q-129 -227 -189 -228q-47 12 -71 56l-6 39q0 102 280 432q135 164 135 247q0 57 -272 84h-66 q-246 0 -376 -69l-105 -123q-61 -45 -90 -45h-2q-82 0 -135 133zM1153 76v4q0 92 92 123h10q90 0 113 -133v-7q-16 -109 -106 -108v-4q-68 0 -103 88z" />
<glyph unicode="@" horiz-adv-x="2078" />
<glyph unicode="A" horiz-adv-x="1130" d="M150 39l24 256q61 451 272 934q76 138 157 138q7 0 13 -1q72 -29 72 -254q12 -289 88 -301h8h4q52 0 365 131q141 49 227 49q18 0 33 -2l6 -12l-2 -6q2 -14 2 -27q0 -64 -53 -104q-430 -111 -504 -209q-45 -59 -51 -90q18 -66 111 -183q139 -201 186 -299 q-35 -46 -75 -45h-11q-88 70 -154 183l-174 221q-31 78 -112 90q-32 9 -61 9q-105 0 -161 -122l-16 -108l-18 -248q1 -8 0 -15q0 -100 -113 -128q-8 -3 -22 -4q-8 0 -19 2l-10 2q-25 30 -25 73q0 32 13 70zM432 737q16 -33 45 -67l55 10q16 12 54 61v21q0 125 -72 196 q-70 -88 -82 -221z" />
<glyph unicode="B" horiz-adv-x="909" d="M88 -68l39 265q36 389 36 604q0 32 -1 61l-25 367q61 172 117 178q41 33 260 135q7 1 15 1q110 0 204 -130q43 -66 53 -131q9 -26 9 -54q0 -111 -138 -239q-109 -133 -254 -221q-23 -37 -20 -70q3 -37 43 -37q3 0 6 1l160 16q10 1 19 1q108 0 167 -124l4 -45q1 -12 1 -24 q0 -202 -283 -486q-147 -127 -262 -139h-13q-131 1 -137 71zM283 102l43 -26q176 76 270 301l18 96l-102 51l-127 -51q-53 -23 -76 -86zM305 1110l27 -104q21 -57 56 -58q7 0 13 2q90 23 217 224l7 40l-7 50q-37 97 -121 96q-29 0 -63 -10q-131 -92 -130 -213q0 -13 1 -27z " />
<glyph unicode="C" horiz-adv-x="968" d="M63 459v39q0 387 377 802q128 107 229 107q15 0 29 -2q141 -25 197 -82q74 -98 74 -195q-14 -111 -70 -110h-4q-55 0 -82 45l-10 104v21q0 49 -84 65q-174 -18 -367 -401q-92 -225 -92 -414v-80q0 -223 148 -333l28 -7h27q104 0 221 134q221 244 266 360q61 10 74 10 q20 -8 20 -41q0 -201 -331 -501q-170 -119 -295 -119q-193 0 -309 252q-46 192 -46 346z" />
<glyph unicode="D" horiz-adv-x="972" d="M-215 1352q0 33 94 57q244 0 518 -143q82 -39 244 -195q240 -268 256 -364q16 -68 16 -134q0 -201 -249 -411l-381 -393q-100 -133 -140 -162l-39 -6q-78 16 -77 41q0 119 188 280q61 74 61 115v2q-57 123 -57 186q-6 37 -10 267q0 381 49 501l18 15h7q86 -6 86 -72 q29 -39 47 -606q16 -90 24 -90h37q98 0 201 194q47 104 47 193q0 227 -385 467q-70 39 -340 120q-215 93 -215 138z" />
<glyph unicode="E" horiz-adv-x="968" d="M43 420q0 43 59 115l11 59q-23 103 -23 198q0 50 6 99q-10 74 -10 133q2 39 31 39q132 0 184 -141q16 -47 16 -109v-4q0 -49 -20 -170q0 -49 -27 -133h4q180 0 308 219q96 139 161 158q27 0 29 -45q0 -133 -174 -338q-84 -86 -188 -127q-115 -53 -121 -64v-10 q0 -100 78 -199q31 -29 73 -28h15q158 0 323 202q51 47 76 48q20 0 45 -48q-22 -95 -141 -196q-115 -86 -293 -168l-33 -4q-29 -10 -56 -10q-134 0 -249 235l-4 37l4 98v15q0 33 -70 90q-14 22 -14 49zM236 1219q0 131 456 284l41 2q135 0 135 -59q0 -28 -55 -49 q-152 -94 -219 -127q-84 -47 -121 -76q-37 -20 -106 -70l-19 -2q-112 23 -112 97z" />
<glyph unicode="F" horiz-adv-x="1015" d="M51 594v14q37 307 90 307q68 14 68 52l4 63l-6 240q29 123 90 162q76 100 246 100h4q184 -4 211 -105v-4q0 -27 -266 -51q-59 -18 -91 -74q-28 -77 -27 -150q0 -13 1 -26l20 -55q-1 -26 -1 -54q0 -202 59 -458q72 29 159 102q350 223 471 258q16 0 29 -143 q-219 -100 -641 -405q-25 -37 -25 -101l11 -196q0 -96 -82 -129l-47 -7h-4q-137 0 -254 406q-19 148 -19 254zM184 543q31 -129 92 -129q28 0 28 75q0 25 -3 58q-2 197 -55 196q-62 -73 -62 -200zM242 221q0 -70 75 -119q14 0 19 115q0 102 -62 107q-16 -1 -32 -103z" />
<glyph unicode="G" horiz-adv-x="1728" d="M12 561q25 180 396 510q379 289 518 315q47 23 73 24q6 0 11 -1q197 -29 286 -195q8 -29 9 -52q0 -12 -2 -23q-16 -100 -123 -168l-11 2q-65 10 -64 91q0 19 3 42q1 6 1 11q0 48 -75 59q-18 3 -37 2q-201 0 -569 -295q-197 -178 -223 -316l-8 -53q-2 -11 -2 -22 q0 -120 190 -211l39 -7q15 -2 30 -2q171 0 439 246q440 180 475 180q62 11 120 11q45 0 87 -7q129 -18 166 -100v-33q-2 -18 -283 -80q-246 -61 -250 -71l-10 -76q-14 -96 -14 -245q0 -138 12 -328l10 -2q108 -17 108 -88q0 -7 -1 -15q-49 -89 -117 -89q-8 0 -16 1 q-143 106 -176 285q-4 86 -5 162q0 153 17 266l-8 10q-20 3 -42 3q-132 0 -294 -116q-108 -62 -201 -62q-19 0 -37 3q-340 49 -395 311z" />
<glyph unicode="H" horiz-adv-x="944" d="M-74 618q0 61 189 185q37 68 37 160v38q0 70 -54 398v10q0 43 54 49q172 -43 172 -172q14 -47 32 -285l17 -12h14q98 0 293 119v172q0 190 113 248q43 0 106 -60q-27 -178 -27 -247q4 -37 76 -37q170 49 461 49h6l10 -12v-11l-102 -112q-15 -37 -43 -37h-70 q-175 0 -374 -98q-55 -41 -56 -281v-4q0 -602 168 -752q53 -59 76 -102v-17q-31 -39 -88 -79q-104 0 -209 209q-53 125 -119 694q29 162 29 209l-6 26q-57 0 -307 -149q-53 -131 -54 -383v-146l11 -225h6q18 0 80 80l20 6q31 0 45 -100q-35 -172 -151 -172q-53 0 -109 106 q-25 61 -37 215l12 322q-16 135 -38 135h-21l-76 -39l-16 -4q-70 55 -70 106z" />
<glyph unicode="I" horiz-adv-x="649" d="M188 1284q-4 82 50 113q57 37 129 41h3q30 0 60 -47q20 -98 23 -164q6 -212 6 -394q0 -150 -4 -276q-2 -56 -2 -109q0 -201 28 -358v-4q1 -10 1 -19q0 -95 -52 -133l-22 -26q-41 0 -109 16q-51 111 -57 232q0 14 -4.5 105t-12.5 278.5l-16 392.5v2z" />
<glyph unicode="J" horiz-adv-x="792" d="M12 424q68 39 100 39q18 0 23 -12l23 -37l55 -189l51 -151q47 -93 96 -94q19 0 37 14q66 123 95 344q12 78 11 302q0 81 -1 179q-23 186 -23 338q-9 71 -9 124q0 157 83 157h2q16 4 28 3q61 0 64 -85q12 -117 31 -649q-16 -543 -80 -637q6 -63 -106 -211q-8 -14 -43 -31 q-62 -41 -119 -41q-42 0 -82 23q-37 12 -139 200q-111 276 -112 366q0 36 17 44z" />
<glyph unicode="K" horiz-adv-x="894" d="M100 451q-5 154 -5 280q0 575 104 576q113 -18 112 -113l6 -47l-18 -334v-4h6l236 338q190 219 272 219q141 0 166 -172q0 -39 -184 -82h-2q-53 0 -172 -176q-96 -106 -148 -246q86 -137 307 -311q317 -205 443 -467q-11 -64 -64 -64q-23 0 -55 13q-309 162 -584 520 q-121 96 -155 96h-19q-29 -147 -47 -373q-34 -255 -135 -276q-89 42 -89 295q0 135 25 328z" />
<glyph unicode="L" horiz-adv-x="980" d="M133 190q0 350 111 1242q31 43 69 43q86 0 105 -197v-4q-63 -678 -76 -914q-18 -84 -18 -170q0 -88 61 -112l18 -4h11q76 0 313 112q92 25 119 25h8q74 0 125 -74q0 -80 -223 -155q-262 -158 -391 -158q-113 0 -203 133q-29 63 -29 233z" />
<glyph unicode="M" horiz-adv-x="1130" d="M143 -92q-18 130 -18 287q0 437 139 1075q35 111 74 151h4q11 0 20 1q89 0 95 -29l4 -23q5 -23 5 -69q0 -122 -36 -394q31 -203 90 -202q201 70 242 434q90 291 209 311h4q24 0 39 -61l8 -46q8 -40 8 -106q0 -189 -63 -592q10 -367 20 -422l66 -200q-31 -96 -109 -111 l-6 -2q-92 45 -117 162l-8 32q-10 47 -10 494l-19 88l-55 -98l-205 -113l-151 115q-47 -211 -47 -415q0 -119 16 -234q1 -13 1 -26q0 -96 -46 -103l-45 -17q-13 -3 -24 -2q-55 0 -68 62z" />
<glyph unicode="N" horiz-adv-x="1193" d="M0 -61q96 362 96 423l23 283q10 143 10 162v6q0 82 35 105q106 72 151 71q80 -25 197 -219q27 -43 84 -240q35 -63 154 -348l18 -26h16q47 76 47 135l-8 639q35 471 99 508q37 70 125 90l16 4q76 -14 76 -43q0 -23 -109 -293q-39 -96 -39 -283v-30l17 -480 q0 -391 -197 -446l-18 -4q-162 0 -299 369q-88 195 -136 348q-37 0 -63 -131l-8 -9v-38q0 -322 -164 -582q-35 -61 -64 -68q-8 -2 -15 -2q-44 0 -44 99z" />
<glyph unicode="O" horiz-adv-x="935" d="M55 489v43q0 350 138 674q84 127 276 183q96 20 131 20q111 -29 203 -135q131 -162 131 -445q0 -230 -86 -528q-211 -254 -383 -313q-80 -43 -133 -43q-127 0 -221 211q-56 155 -56 333zM250 520q22 -243 98 -362q18 -3 35 -3q68 0 131 48q82 63 178 239q45 137 45 342 q0 270 -116 387q-25 18 -48 19h-20q-106 -12 -207 -156q-86 -215 -96 -514z" />
<glyph unicode="P" horiz-adv-x="1071" d="M123 1161l2 10q31 174 317 281q63 40 186 40q86 0 201 -19q102 -18 195 -211q19 -47 19 -93q0 -17 -3 -34l-4 -29q-18 -295 -630 -614q-74 -67 -74 -186q0 -35 6 -75l-2 -16q-10 -55 -10 -219q-13 -115 -82 -115q-10 0 -21 2q-70 12 -92 230q-2 33 -1 63q0 92 13 166 l7 33l26 297v2q2 13 3 34q0 87 -40 314q-19 61 -19 107q0 17 3 32zM305 1163q-1 -11 -1 -24q0 -97 61 -273l20 -141q8 -19 46 -19q23 0 56 7q86 18 238 184q152 131 164 266q3 16 3 32q0 77 -77 126q-93 7 -162 7q-122 0 -174 -21q-176 -81 -176 -133q0 -6 2 -11z" />
<glyph unicode="Q" horiz-adv-x="968" d="M57 465q49 670 86 670q0 63 146 155q172 74 194 74h17q28 2 54 2q316 0 450 -233q33 -172 32 -238v-21q2 -24 3 -49q0 -179 -113 -407q-86 -127 -86 -146q0 -23 186 -233q39 -53 41 -94q0 -47 -82 -47h-4q-121 0 -229 219l-41 41h-6q-242 -213 -357 -213l-24 -4 q-223 0 -261 430zM205 485q0 -268 114 -348l5 -6h6q98 0 245 145l25 37v17l-121 170v6q0 63 56 72h6q51 -14 159 -152l45 -14q41 25 109 209q29 188 29 301q0 199 -131 254q-121 43 -248 43q-117 -27 -205 -132q-59 -57 -59 -182q-35 -221 -35 -420z" />
<glyph unicode="R" horiz-adv-x="1013" d="M55 518q0 678 506 944l19 4h4q186 0 250 -217q16 -92 16 -133q0 -74 -41 -307q-80 -168 -199 -297l-129 -115v-8q14 -41 64 -41q469 -137 469 -297q-6 -61 -35 -61q-47 0 -260 100q-289 31 -334 70q-35 20 -66 20h-24q-18 0 -21 -211q-16 -96 -71 -96q-129 0 -129 266 q-1 107 -19 379zM233 457l3 -33h43q129 29 315 317q119 227 119 334v49q-18 125 -135 125q-168 -94 -232 -270q-113 -332 -113 -522z" />
<glyph unicode="S" horiz-adv-x="1257" d="M47 766q14 227 524 479q264 117 329 117h3h4q147 -12 197 -184l4 -50l-2 -14q-20 -121 -114 -121h-9q-29 0 -47 60q-18 55 -59 57l-25 2h-4q-178 0 -512 -244q-74 -61 -76 -82v-8q0 -20 82 -57q90 -20 510 -72q127 -31 207 -71q134 -87 133 -195v-14q-12 -178 -440 -357 q-175 -73 -342 -73q-25 0 -50 2h-10q-145 12 -164 59q-35 35 -32 66q20 109 109 108h9l136 -41q408 39 501 103q102 72 109 161l4 4q-33 47 -195 60l-24 2l-420 10q-219 16 -283 129q-54 76 -53 149q-1 8 0 15z" />
<glyph unicode="T" horiz-adv-x="1116" d="M4 612q6 78 266 310q233 229 435 358q126 83 319 190q50 55 94 56h4h8q106 -8 117 -96q-6 -64 -56 -64h-9q-74 -53 -219 -143l-166 -121l-287 -228q-330 -346 -463 -346q-44 25 -44 72q0 6 1 12zM575 604l7 133q27 182 80 183h4q113 -14 112 -33q0 -440 39 -633l-16 -199 q-14 -68 -67 -68q-4 0 -9 1q-111 8 -150 616z" />
<glyph unicode="U" horiz-adv-x="1038" d="M106 971q0 330 64 407q47 47 80 47q46 -27 46 -210q0 -48 -3 -107l6 -129l-18 -528q45 -219 174 -273l16 -6h8q92 0 223 303q57 178 58 336q0 47 -43 219l-2 39v4q-7 32 -7 60q0 89 68 129l17 4q16 18 32 18q39 0 80 -104q37 -114 37 -283v-14q0 -340 -133 -625 q-126 -230 -307 -295q-102 -29 -123 -29h-10q-156 18 -189 203q-80 289 -80 637q0 97 6 197z" />
<glyph unicode="V" horiz-adv-x="1046" d="M0 1346q37 53 66 71h6q61 -20 98 -84q49 -76 139 -352q96 -432 146 -825l47 39q43 39 141 409q147 492 234 604q25 109 79 133q7 3 13 4q31 0 32 -96q0 -22 -2 -49q-74 -324 -383 -1108q-57 -135 -127 -135q-19 -7 -36 -7q-61 0 -113 83q-47 100 -98 397 q-65 264 -105 467q-137 414 -137 449z" />
<glyph unicode="W" horiz-adv-x="1533" d="M129 98q-28 232 -28 476t28 499q-4 34 -4 65q0 134 76 208q10 1 18 1q128 0 131 -210q-63 -514 -76 -602v-281q10 -125 111 -158q180 233 203 434q33 188 139 220q9 1 17 1q144 0 153 -302q117 -335 283 -424q112 82 112 269q0 23 -2 48l-45 358l-59 418q-12 81 -12 139 q0 105 40 142q12 2 25 1l117 -32q66 -131 65 -285v-14q16 -246 33 -670q2 -35 2 -68q0 -333 -172 -452q-54 -9 -102 -9q-101 0 -176 38q-94 63 -211 313l-64 90q-104 -182 -139 -233q-57 -125 -225 -172q-175 18 -238 192z" />
<glyph unicode="X" horiz-adv-x="1193" d="M-47 1190q10 23 47 63q84 -6 551 -411l80 -58q66 160 237 285q137 90 260 91q8 0 15 -1q115 -6 213 -137q-2 -45 -41 -68q-29 8 -83 20.5t-75 16.5q-141 0 -291 -155q-80 -61 -123 -140q197 -145 324 -278q210 -166 210 -280q0 -18 -5 -36v-10l-49 -20q-174 100 -377 297 q-98 90 -195 219q-90 -92 -223 -330q-102 -205 -102 -301q19 -74 19 -120q0 -64 -38 -75q-137 2 -162 203q31 197 238 555l104 152l-264 168q-273 216 -272 330q0 10 2 20z" />
<glyph unicode="Y" horiz-adv-x="1136" d="M98 748q27 520 113 520v6q15 1 28 1q71 0 70 -40l6 -53l-69 -424q-7 -44 -7 -78q0 -117 82 -117q12 0 25 2q115 115 393 508q82 145 205 277q51 43 76 43q84 -10 84 -25v-6q0 -72 -559 -1237l-133 -447q-63 -53 -142 -53h-6q-43 0 -43 41v12q0 154 309 750 q78 178 175 346l-109 -143q-144 -190 -190 -191q-78 -66 -160 -65q-119 0 -119 100q-15 1 -29 273z" />
<glyph unicode="Z" horiz-adv-x="1476" d="M113 1231q228 -42 305 -43q14 0 24 2l285 4q154 4 170 6q28 3 53 3q56 0 109 -15q54 -22 54 -82q0 -59 -52 -154q-170 -217 -406 -432q-63 -61 -321 -334l178 -57l598 92q119 53 186 53q58 0 78 -38q72 -41 96 -119l7 -23q-6 -102 -37 -106h-3q-38 0 -241 51q-21 2 -46 2 q-190 0 -585 -104q-62 -8 -115 -8q-282 0 -311 221l-10 67q100 184 471 528q170 170 207 259h-178l-39 -5q-86 -12 -170 -12q-129 0 -254 29q-83 11 -125.5 38.5t-42.5 70.5q0 93 115 106z" />
<glyph unicode="[" horiz-adv-x="1443" d="M145 -303q-4 43 71 70.5t226 39.5q289 14 697 -4q88 -76 88 -94q6 -82 -185 -94l-241 -14l-29 -2q-367 -18 -596 57q-31 25 -31 41zM158 371q14 817 32 1515q135 201 156 201q43 2 66.5 -42t27.5 -136t-10 -232l-12 -626v-64q31 -782 -111 -1288q-43 -70 -67 -72 q-33 -2 -54.5 43t-32 138.5t-9 234t13.5 328.5zM301 2005q-4 43 70.5 71.5t226.5 41.5q287 14 694 -4q90 -80 90 -95q6 -84 -184 -96l-242 -12l-28 -2q-372 -18 -596 55q-31 25 -31 41z" />
<glyph unicode="\" horiz-adv-x="1349" d="M0 1636q6 238 27 252q51 39 123.5 -36.5t166.5 -266.5l320 -536l31 -56q436 -639 589 -1153q0 -80 -20 -94q-53 -39 -169 107.5t-294 478.5z" />
<glyph unicode="]" horiz-adv-x="1583" d="M213 -283q-6 88 297 113q287 14 694 -4q90 -78 90 -96q6 -82 -184 -95l-242 -14l-28 -2q-365 -18 -594 57q-33 27 -33 41zM379 1915q-6 86 297 110q287 14 694 -4q90 -80 90 -96q6 -82 -184 -94l-244 -14h-26q-371 -18 -596 55q-31 25 -31 43zM1157 332q31 688 74 1515 q137 197 160 197q129 6 73 -414l-26 -624l-4 -64q12 -778 -144 -1286q-47 -66 -69 -68q-132 -6 -64 744z" />
<glyph unicode="^" horiz-adv-x="776" d="M45 1122l2 13l82 172q113 346 305 424l45 10q152 -98 228 -488q-6 -10 -11 -229l2 -4v-10q-10 -25 -96 -72q-84 100 -94 254q-25 201 -53 278l-17 3q-41 -29 -92 -87l-123 -321q-10 -41 -78 -72q-39 10 -100 129z" />
<glyph unicode="_" horiz-adv-x="978" d="M74 27q-6 86 243 110q236 14 570 -4q74 -80 74 -92q6 -82 -152 -94l-199 -15l-22 -2q-299 -18 -488 58q-26 27 -26 39z" />
<glyph unicode="`" d="M74 1716q6 35 16 43q61 61 219 -82q152 -152 295 -440q10 -31 -2 -43q-59 -57 -194 23l-91 73l-14 15q-182 182 -229 411z" />
<glyph unicode="a" horiz-adv-x="1198" d="M78 31l22 254q59 459 267 936q76 138 154 138q7 0 14 -1q74 -28 73 -252q14 -287 92 -299l7 -2h4q55 0 362 133q146 51 231 51q17 0 31 -2l6 -12l-2 -6q2 -14 2 -27q0 -64 -53 -104q-430 -115 -504 -211q-43 -55 -49 -92q18 -63 111 -181q143 -203 188 -297 q-34 -48 -76 -47h-10q-88 70 -153 183l-174 219q-31 78 -115 90q-31 8 -58 8q-105 0 -161 -123l-19 -108l-16 -248q1 -8 1 -15q0 -99 -114 -131q-8 -3 -20 -3q-8 0 -19 1l-12 2q-24 29 -24 72q0 33 14 74zM354 729q20 -39 45 -67l58 10q16 14 53 63v18q0 120 -74 197 q-70 -88 -82 -221z" />
<glyph unicode="b" horiz-adv-x="821" d="M53 -98l41 264q34 367 34 598q0 37 -1 70l-23 362q61 172 115 178q39 29 262 135q9 1 19 1q107 0 200 -128q41 -61 52 -131q9 -28 8 -56q0 -111 -135 -237q-113 -139 -254 -221q-25 -43 -23 -69q3 -35 42 -35h7l160 12q10 1 20 1q107 0 166 -122l5 -45q1 -12 1 -24 q0 -202 -284 -486q-152 -131 -260 -139l-15 -2q-131 2 -137 74zM248 72l45 -27q176 76 268 299l21 98l-105 52l-125 -50q-51 -20 -76 -88zM272 1079l25 -104q20 -56 56 -56q8 0 16 3q89 22 215 221l6 41l-4 49q-37 97 -123 97q-29 0 -64 -11q-129 -90 -128 -213 q-1 -13 1 -27z" />
<glyph unicode="c" horiz-adv-x="872" d="M35 276l8 109l-4 53q0 258 133 555q145 205 188 256q184 160 267 181q98 0 161 -121q10 -27 11 -60q-20 -117 -72 -116q-16 0 -121 51h-31q-119 0 -266 -338q-109 -260 -108 -504q25 -264 133 -264h4q86 0 293 135l121 176l36 21q78 -43 78 -107q0 -121 -231 -297 q-178 -117 -301 -117q-170 0 -268 246z" />
<glyph unicode="d" horiz-adv-x="886" d="M-111 1460q243 -15 510 -178q82 -47 232 -215q223 -285 235 -393q11 -57 11 -112v-27q-10 -209 -273 -414l-399 -389q-104 -127 -150 -158l-39 -6q-76 18 -76 45q0 1 1 2q6 125 202 281q65 74 68 116v2q-49 137 -47 199q-2 17 -2 57q0 66 6 219q23 397 76 519l18 14h8 q43 -6 63.5 -25.5t18.5 -54.5q18 -27 19 -306q0 -132 -4 -327q8 -94 20 -94l37 -2h6q96 0 203 190q51 98 57 199q0 8 1 15q0 230 -359 491q-66 45 -332 145q-209 108 -209 153q0 35 98 54z" />
<glyph unicode="e" horiz-adv-x="886" d="M37 469q4 41 72 113l12 57q-8 63 -9 124q0 91 19 179q-1 25 -1 49q0 43 3 86q2 20 12.5 29.5t24.5 7.5q131 -12 170 -158q8 -35 8 -72q0 -19 -2 -38v-6q-4 -45 -37 -170q-6 -58 -37 -135h2l24 -2q162 0 302 200q111 133 176 146q27 -4 27 -52q-12 -133 -205 -325 q-94 -82 -201 -113q-121 -43 -127 -53v-10q-1 -11 -1 -23q0 -91 63 -186q31 -35 69 -37l15 -2q9 -1 19 -1q150 0 323 179q50 41 74 41h4q20 -2 41 -51q-29 -96 -160 -189q-104 -70 -303 -143l-35 -2q-22 -5 -42 -5q-144 0 -241 263l-2 37l15 98v14q2 33 -64 99q-9 18 -9 39 q0 6 1 12zM782 1513l39 -2q135 -12 131 -73q-2 -27 -59 -45q-164 -82 -229 -109q-72 -35 -127 -67q-31 -14 -113 -60l-21 -2q-103 29 -102 100q0 73 119.5 135.5t361.5 122.5z" />
<glyph unicode="f" horiz-adv-x="1009" d="M76 330q-2 51 -2 99q0 84 6 157v12q60 299 113 299h2q70 8 71 45l8 66l13 239q37 117 102 154q76 81 216 81q19 0 38 -1h4q182 -18 203 -121v-2q0 -29 -270 -33q-59 -12 -95 -68q-37 -78 -41 -172l17 -57q-11 -92 -11 -192q0 -152 25 -324q70 25 168 90q375 199 490 221 q18 0 18 -145q-227 -84 -672 -352q-27 -35 -33 -99l-6 -196q-10 -96 -92 -123l-47 -2h-2q-137 8 -223 424zM209 524q20 -131 82 -137h1q31 0 32 110v21q3 44 3 79q0 120 -42 122q-68 -74 -76 -195zM240 199q-1 -6 -1 -12q0 -66 64 -113q16 -4 29 112q1 14 1 27q0 78 -52 86 h-1q-19 0 -40 -100z" />
<glyph unicode="g" horiz-adv-x="1658" d="M35 580q23 178 385 514q373 299 512 327q43 22 72 22q6 0 12 -1q199 -25 291 -189q7 -25 7 -52q0 -11 -1 -23q-12 -98 -119 -168h-10q-68 8 -68 97q0 17 2 36q1 6 1 11q0 48 -72 56q-14 2 -30 2q-205 0 -573 -305q-195 -178 -219 -319l-6 -53q-1 -10 -1 -21 q0 -120 196 -211l35 -4q13 -2 26 -2q171 0 438 254q438 190 476 190q65 11 126 11q41 0 80 -4q127 -14 166 -99l2 -31q-2 -18 -282 -83q-244 -68 -248 -78l-8 -74q-9 -81 -10 -196q0 -159 18 -380l10 -2q109 -14 109 -88v-12q-47 -91 -118 -91q-7 0 -13 1q-145 102 -183 281 q-7 120 -7 216q0 121 11 212l-8 12q-16 2 -33 2q-131 0 -303 -125q-105 -64 -197 -64q-18 0 -36 3q-342 43 -402 305z" />
<glyph unicode="h" horiz-adv-x="1138" d="M-51 659q0 63 186 183q39 74 39 162v38q0 70 -53 398v10q0 41 53 47q172 -40 172 -172q14 -49 33 -283l14 -12h17q102 0 290 119v172q0 190 113 248q45 0 109 -60q-27 -178 -27 -247q2 -37 76 -37q168 49 461 49h6l10 -12v-11l-102 -112q-15 -37 -43 -37h-70 q-176 0 -377 -98q-53 -39 -53 -279v-6q0 -602 168 -752q47 -53 73 -102v-17q-34 -40 -86 -79q-104 0 -208 208q-53 125 -119 693q27 152 26 211l-6 26q-55 0 -305 -149q-53 -131 -53 -383v-146l10 -225h4q18 0 82 82l21 4q29 0 45 -102q-33 -172 -152 -172q-53 0 -108 108 q-25 61 -37 213l12 324q-14 135 -41 135h-18l-76 -39l-17 -4q-69 55 -69 106z" />
<glyph unicode="i" horiz-adv-x="458" d="M115 168q8 172 28 774v4l11 350q2 80 57 109q63 33 94 33q37 -4 60 -54q11 -81 10 -138v-25q-18 -387 -47 -676q-16 -152 -16 -283q0 -102 10 -192v-7q-4 -109 -35 -131l-25 -24q-33 0 -106 24q-41 113 -42 221q1 7 1 15z" />
<glyph unicode="j" horiz-adv-x="673" d="M-80 434q68 35 99 35q18 0 24 -12l20 -37l50 -191l49 -151q45 -97 93 -97q18 0 36 13q76 133 104 340q18 98 25 481q-14 134 -14 257q0 41 2 81q-6 58 -6 104q0 175 83 175h4q14 3 26 2q67 0 67 -88q10 -117 12 -650q-31 -535 -100 -633q4 -66 -113 -208q-10 -12 -43 -29 q-61 -38 -117 -38q-44 0 -84 24q-37 16 -133 206q-101 270 -101 363q0 41 19 49z" />
<glyph unicode="k" horiz-adv-x="1107" d="M117 451q-5 154 -5 280q0 575 103 576q113 -18 113 -113l6 -47l-19 -334v-4h7l235 338q190 219 272 219q141 0 166 -172q0 -39 -184 -82h-2q-53 0 -172 -176q-96 -106 -148 -246q86 -137 308 -311q317 -205 442 -467q-11 -64 -63 -64q-23 0 -56 13q-309 162 -583 520 q-121 96 -156 96h-19q-29 -147 -47 -373q-33 -254 -137 -276q-87 42 -87 290q0 136 26 333z" />
<glyph unicode="l" horiz-adv-x="884" d="M115 213q0 350 110 1241q29 41 72 41q84 0 102 -197v-2q-57 -625 -73 -913q-20 -94 -21 -170q0 -90 62 -115l18 -2h10q76 0 314 113q84 23 118 22h11q74 0 123 -69q0 -80 -224 -160q-262 -158 -391 -158q-113 0 -203 133q-28 68 -28 236z" />
<glyph unicode="m" horiz-adv-x="1148" d="M84 -141q-2 55 -2 112q0 553 188 1303q45 123 78 156h6q109 -4 115 -37l2 -23q1 -11 1 -25q0 -108 -83 -393q49 -279 109 -280q205 63 297 514q68 223 188 241q2 0 4 1q26 0 35 -66l6 -47q1 -11 1 -26q0 -158 -89 -699q-4 -152 -4 -262q0 -140 6 -181l55 -210 q-33 -100 -114 -113h-6q-90 51 -109 174l-6 33q-3 18 -3 72q0 126 15 444l27 194l-131 -204l-178 -105l-162 209q-54 -313 -54 -579q0 -92 7 -179q0 -125 -54 -135l-45 -10q-11 -2 -20 -2q-57 0 -68 65z" />
<glyph unicode="n" horiz-adv-x="1216" d="M68 -121q94 356 94 426l22 285q10 139 11 160v8q0 78 34 100q104 74 152 74q80 -25 197 -217q25 -41 84 -242q39 -72 153 -346l21 -29h14q47 76 47 135l-6 639q35 475 96 510q37 68 125 88l16 5q76 -12 76 -43q0 -20 -108 -291q-39 -96 -39 -285v-33l16 -477 q0 -391 -194 -446l-21 -4q-162 0 -299 368q-88 195 -135 348q-37 0 -64 -131l-8 -8v-39q0 -322 -164 -581q-35 -59 -61 -66q-9 -3 -16 -3q-43 0 -43 95z" />
<glyph unicode="o" horiz-adv-x="952" d="M0 545v43q0 354 135 674q84 127 277 182q106 23 133 22q106 -27 200 -137q133 -164 134 -442q0 -227 -138 -545q-190 -264 -327 -315q-90 -27 -138 -27q-129 0 -223 211q-53 152 -53 334zM188 567q25 -231 105 -321q33 -36 70 -36q29 0 63 21q74 47 176 230 q80 178 80 381q0 266 -119 385q-18 45 -106 47h-3q-88 0 -188 -172q-78 -246 -78 -515v-20z" />
<glyph unicode="p" horiz-adv-x="1062" d="M72 1141l2 10q10 207 299 319q83 42 186 42q95 0 207 -35q104 -14 205 -205q21 -51 20 -96q0 -15 -2 -29l-4 -31q-10 -299 -606 -635q-68 -66 -68 -176q0 -40 8 -86l-2 -16q-4 -21 -3 -69q0 -42 3 -150q-11 -116 -82 -117q-9 0 -18 2q-72 10 -98 223q-5 54 -5 104 q0 67 9 128l4 30l14 299l2 2q1 9 2 22q0 83 -51 324q-24 69 -24 118q1 12 2 22zM256 1149v-16q0 -98 68 -279l26 -139q9 -19 44 -19q23 0 57 9q86 23 231 194q150 135 156 270q2 14 2 28q0 81 -82 128q-60 10 -114 10q-130 0 -224 -59q-166 -65 -166 -115q0 -6 2 -12z" />
<glyph unicode="q" horiz-adv-x="1116" d="M43 430q49 672 84 672q0 63 145 155q168 72 197 72h14q29 2 56 2q316 0 448 -231q33 -172 33 -238v-20q2 -24 2 -50q0 -179 -113 -407q-86 -127 -86 -147q0 -23 187 -234q39 -53 41 -92q0 -47 -80 -47h-6q-123 0 -230 217l-41 43h-6q-242 -213 -354 -213l-27 -4 q-223 0 -260 430zM188 451q0 -268 115 -349l4 -4h6q98 0 246 146l25 37v16l-119 170v4q0 66 53 74h6q55 -18 160 -152l45 -14q41 23 109 207q29 190 28 303q0 199 -131 254q-115 41 -248 41q-119 -27 -204 -129q-59 -57 -60 -183q-35 -220 -35 -421z" />
<glyph unicode="r" horiz-adv-x="968" d="M55 94q8 147 8 389q45 690 611 926l18 4h4q199 -14 254 -239q11 -78 11 -120v-18q-6 -78 -66 -311q-101 -172 -233 -289l-148 -106v-8q12 -43 66 -48q498 -174 485 -333q-9 -64 -38 -64h-3q-41 2 -274 123q-315 55 -357 94q-35 23 -69 27l-25 2q-20 0 -39 -215 q-21 -94 -80 -94h-4q-123 8 -123 221q0 28 2 59zM250 408l2 -35l45 -2q139 18 360 301q143 223 152 332l2 51q-12 129 -137 137q-188 -82 -266 -260q-146 -329 -158 -524z" />
<glyph unicode="s" horiz-adv-x="1171" d="M72 725q27 229 551 451q251 95 326 95q7 0 12 -1h4q147 -18 184 -193l2 -51l-2 -14q-25 -116 -114 -116q-8 0 -17 1q-25 2 -41 64q-14 57 -59 61l-25 4q-9 1 -18 1q-172 0 -510 -216q-76 -57 -78 -78l-2 -8q-4 -23 80 -63q80 -25 503 -99q127 -37 203 -84 q122 -92 122 -194q0 -12 -1 -23q-23 -176 -461 -328q-167 -58 -310 -58q-41 0 -81 5l-12 2q-141 18 -160 68q-31 39 -29 67q25 106 108 106q9 0 17 -1l131 -49q28 -1 55 -1q223 0 381 68q154 54 154 139q0 76 -151 97l-25 2l-418 35q-217 27 -274 145q-46 72 -47 143z" />
<glyph unicode="t" horiz-adv-x="927" d="M-150 618q12 80 283 295q252 215 457 330q135 78 330 170q49 52 93 52q5 0 9 -1l6 -2q111 -16 113 -102q-8 -58 -57 -59q-7 0 -15 2q-96 -49 -244 -132l-176 -116l-268 -181q-355 -340 -485 -340q-4 0 -7 1q-40 24 -40 67q0 8 1 16zM420 575l12 134q39 179 91 178h5 q39 -14 56.5 -25.5t15.5 -21.5q-2 -128 -2 -248q0 -206 6 -387l6 -191q-23 -116 -91 -115q-25 0 -56 15q-39 51 -43 661z" />
<glyph unicode="u" horiz-adv-x="1093" d="M152 971q0 330 63 407q47 47 78 47q57 -33 63 -292l9 -132l-9 -526q14 -244 142 -297l18 -6h8q90 0 219 317q57 178 58 334q0 49 -68 228l-4 36v7q0 115 90 168l17 4q16 18 32 18q39 0 80 -104q39 -121 39 -283v-14q0 -340 -133 -625q-126 -230 -307 -295 q-102 -29 -125 -29h-10q-154 18 -187 203q-80 289 -80 637q1 97 7 197z" />
<glyph unicode="v" horiz-adv-x="954" d="M0 1346q37 53 66 71h6q61 -20 98 -84q51 -78 104 -307q133 -545 181 -870l47 39q43 41 127 397q147 494 233 657q41 68 94 92q7 3 13 4q31 0 32 -96q0 -22 -2 -49q-74 -324 -383 -1108q-57 -135 -127 -135q-19 -7 -36 -7q-61 0 -113 83q-49 102 -115 362 q-55 229 -102 465q-123 455 -123 486z" />
<glyph unicode="w" horiz-adv-x="1552" d="M129 106q-28 233 -28 476.5t28 498.5q-4 36 -4 68q0 135 74 207q9 1 18 1q130 0 133 -210q-59 -481 -76 -602l-2 -281q10 -125 111 -158q184 236 205 435q33 188 139 219q9 1 17 1q144 0 153 -302q117 -336 281 -424q112 82 112 270q0 23 -2 47l-43 359l-59 417 q-13 84 -13 143q0 102 39 138q12 2 25 2q57 0 119 -33q64 -127 63 -284v-15q20 -332 35 -669q2 -35 2 -69q0 -333 -172 -452q-54 -9 -104 -9q-99 0 -174 36q-96 70 -213 313l-62 93q-89 -154 -141 -234q-59 -127 -223 -172q-175 16 -238 190z" />
<glyph unicode="x" horiz-adv-x="1073" d="M-182 1190q8 16 49 63q84 -6 551 -411l80 -58q66 160 237 285q137 90 257 91q8 0 16 -1q115 -6 213 -137q-2 -45 -41 -68q-31 8 -84.5 20.5l-71.5 16.5q-143 0 -293 -155q-78 -57 -121 -140q190 -141 322 -278q210 -166 210 -280q0 -18 -5 -36v-10l-50 -20 q-170 98 -374 297q-98 90 -195 219q-90 -92 -223 -330q-104 -209 -105 -301q20 -77 20 -123q0 -61 -36 -72q-137 2 -162 203q31 197 238 555l102 152l-262 168q-275 218 -275 330q1 11 3 20z" />
<glyph unicode="y" horiz-adv-x="944" d="M86 829q29 520 113 521v8q15 1 27 1q71 0 71 -40l6 -53l-70 -426q-7 -42 -6 -76q0 -118 83 -117q12 0 26 2q113 113 391 506q86 150 205 279q53 41 76 41q84 -10 84 -25v-4q0 -74 -560 -1239l-133 -447q-63 -53 -141 -53h-6q-41 0 -41 41v12q0 160 307 750 q78 178 174 346l-108 -143q-144 -190 -191 -191q-76 -63 -160 -63q-117 0 -116 98q-17 0 -31 272z" />
<glyph unicode="z" horiz-adv-x="1462" d="M12 1268q334 -79 417 -79q9 0 15 1l285 4q152 4 168 6q28 3 54 3q58 0 110 -15q55 -22 55 -84q0 -59 -51 -152q-164 -211 -408 -432q-84 -80 -323 -334l180 -57l598 92q158 53 245 53q74 0 93 -38q72 -41 96 -119l4 -23q-6 -104 -34 -106h-4q-36 0 -238 51q-30 2 -62 2 q-248 0 -643 -104q-63 -8 -116 -8q-283 0 -312 221l-10 67q98 181 473 528q170 172 205 259h-178l-39 -5q-319 6 -526 54q-166 21 -166 109q-1 93 112 106z" />
<glyph unicode="{" />
<glyph unicode="|" horiz-adv-x="530" />
<glyph unicode="}" />
<glyph unicode="~" horiz-adv-x="1193" />
<glyph unicode="&#xa1;" />
<glyph unicode="&#xa2;" horiz-adv-x="1138" />
<glyph unicode="&#xa3;" horiz-adv-x="1439" d="M55 666q12 94 174 100q139 14 146 57q31 205 -8 213q-59 -51 -107 -45q-25 4 -24 39q6 51 155 137q68 49 80 226l107 438q29 94 63 131q45 39 76 35q68 -10 86 -82q4 -29 0 -53q-8 -70 -103 -267l-38 -215q-18 -147 12 -149q166 27 301 8h59q63 -8 70 -94 q-143 -88 -430 -39q-72 0 -88 -221q0 -49 16 -54l152 27h51q45 -6 57 -57v-2q-33 -76 -88 -101q-41 -18 -160 -2q-53 -12 -59 -55q-20 -51 -39 -190v-5q-31 -246 12 -313q156 41 334 64q154 18 463 -11l107 -30q53 -154 -82 -156q-94 -29 -293 -10q-203 18 -381 6 q-147 -35 -244 -102h-35h-8q-63 18 -93 45.5t-26 64.5q20 61 49 121q-14 100 33 467l-237 -6q-46 6 -60 80z" />
<glyph unicode="&#xa4;" horiz-adv-x="1138" />
<glyph unicode="&#xa5;" horiz-adv-x="1138" />
<glyph unicode="&#xa6;" horiz-adv-x="530" />
<glyph unicode="&#xa7;" horiz-adv-x="1138" />
<glyph unicode="&#xa8;" horiz-adv-x="751" d="M33 1571q-33 137 45 180t170 -45q43 -156 -70 -193q-110 -36 -145 58zM430 1628q-29 137 41 178q72 43 156 -45q37 -158 -64 -190q-102 -35 -133 57z" />
<glyph unicode="&#xa9;" horiz-adv-x="1507" />
<glyph unicode="&#xaa;" horiz-adv-x="757" />
<glyph unicode="&#xab;" horiz-adv-x="1138" />
<glyph unicode="&#xac;" horiz-adv-x="1193" />
<glyph unicode="&#xad;" horiz-adv-x="1761" d="M311 678q-6 86 295 110q289 14 697 -4q90 -80 90 -94q6 -82 -185 -94l-241 -14l-29 -2q-367 -18 -596 57q-31 25 -31 41z" />
<glyph unicode="&#xae;" horiz-adv-x="1507" />
<glyph unicode="&#xaf;" horiz-adv-x="1130" />
<glyph unicode="&#xb0;" horiz-adv-x="505" d="M70 1501v17q0 117 55 225q31 39 113 59l53 8q45 -8 82 -45q53 -53 53 -149q0 -78 -55 -182q-76 -88 -133 -105q-31 -8 -56 -8q-51 0 -90 70q-22 55 -22 110zM197 1538q6 -37 20 -51q12 -12 27 -4q16 10 37 39q16 29 16 63q0 45 -25 66q-2 6 -22 6q-14 0 -37 -29 q-16 -45 -16 -90z" />
<glyph unicode="&#xb1;" horiz-adv-x="1122" />
<glyph unicode="&#xb2;" />
<glyph unicode="&#xb3;" />
<glyph unicode="&#xb4;" />
<glyph unicode="&#xb5;" horiz-adv-x="1179" />
<glyph unicode="&#xb6;" horiz-adv-x="1099" />
<glyph unicode="&#xb7;" horiz-adv-x="567" />
<glyph unicode="&#x2219;" horiz-adv-x="567" />
<glyph unicode="&#xb8;" />
<glyph unicode="&#xb9;" />
<glyph unicode="&#xba;" horiz-adv-x="747" />
<glyph unicode="&#xbb;" horiz-adv-x="1138" />
<glyph unicode="&#xbc;" horiz-adv-x="1705" />
<glyph unicode="&#xbd;" horiz-adv-x="1705" />
<glyph unicode="&#xbe;" horiz-adv-x="1705" />
<glyph unicode="&#xbf;" horiz-adv-x="1249" />
<glyph unicode="&#xc0;" horiz-adv-x="1073" d="M123 57l29 252q70 455 292 930q84 150 172 133q72 -29 68 -254q6 -291 82 -303l6 -2q43 -6 373 125q176 59 262 43l4 -12l-2 -6q10 -86 -53 -132q-434 -102 -508 -196q-45 -57 -53 -90q23 -76 104 -185q141 -213 182 -303q-39 -51 -88 -43q-86 70 -149 187l-168 223 q-27 76 -113 92q-147 45 -221 -106l-20 -111l-25 -246q6 -111 -115 -141q-16 -6 -41 0h-10q-41 55 -8 145zM131 1724q25 82 211 -18q160 -88 293 -137q18 -22 12 -37q-25 -80 -141 -86l-82 12l-14 4q-181 52 -277 215q-6 29 -2 47zM420 750q18 -39 43 -70l55 8q22 15 55 62 q8 137 -67 219q-74 -86 -86 -219z" />
<glyph unicode="&#xc1;" horiz-adv-x="1015" d="M10 250q-10 465 125 964q58 160 148 160q78 -16 110 -235q59 -287 133 -287h9q41 0 344 186q162 86 249 86l7 -10v-8q25 -80 -31 -135q-408 -174 -465 -285q-37 -68 -37 -96q29 -63 135 -164q172 -180 230 -264q-31 -59 -78 -60q-100 59 -178 156l-205 193 q-43 72 -127 71q-152 20 -201 -143v-111l19 -248q25 -106 -91 -159q-20 -8 -38 -8h-11q-49 47 -34 143zM61 1571l43 69l9 13q117 152 303 178q33 -6 43 -14q68 -53 -94 -191q-143 -119 -236 -221q-27 -6 -39 2q-66 53 -29 164zM197 727q20 -31 53 -61l55 18q18 18 43 72 q-15 135 -104 202q-57 -94 -47 -231z" />
<glyph unicode="&#xc2;" horiz-adv-x="1363" />
<glyph unicode="&#xc3;" horiz-adv-x="1363" />
<glyph unicode="&#xc4;" horiz-adv-x="1021" d="M33 1571q-33 137 45 180t170 -45q43 -156 -70 -193q-110 -36 -145 58zM63 250q-8 457 127 964q58 160 148 160q78 -16 108 -235q59 -287 134 -287h8q41 0 344 186q162 86 250 86l8 -10v-8q25 -76 -33 -135q-408 -174 -467 -285q-31 -57 -35 -96q29 -63 136 -164 q178 -188 231 -264q-31 -59 -80 -60q-100 59 -178 156l-207 193q-41 72 -123 71q-154 23 -201 -143l-2 -111l19 -248q25 -109 -88 -159q-20 -8 -39 -8h-12q-47 45 -33 143zM250 727q20 -31 53 -61l55 18q18 18 43 72q-16 137 -102 202q-57 -98 -49 -231zM430 1628 q-29 137 41 178q72 43 156 -45q37 -158 -64 -190q-102 -35 -133 57z" />
<glyph unicode="&#xc5;" horiz-adv-x="958" d="M35 250q-10 465 125 964q58 160 147 160q78 -16 111 -235q59 -287 133 -287h8q41 0 344 186q162 86 250 86l6 -10v-8q25 -80 -31 -135q-408 -174 -464 -285q-37 -68 -37 -96q29 -63 135 -164q172 -180 229 -264q-31 -59 -78 -60q-100 59 -178 156l-205 193 q-43 72 -127 71q-152 20 -200 -143v-111l18 -248q25 -106 -90 -159q-20 -8 -39 -8h-10q-49 47 -35 143zM133 1585v14q0 117 55 226q33 43 113 61q39 6 53 6q47 -10 82 -45q53 -51 53 -149q0 -76 -55 -180q-76 -88 -133 -107q-31 -8 -55 -8q-49 0 -90 72q-23 55 -23 110z M221 727q20 -31 53 -61l56 18q18 18 43 72q-15 135 -105 202q-57 -94 -47 -231zM260 1622q6 -39 21 -53q14 -10 26 -2q18 12 37 37q16 33 16 63q0 47 -24 66q-4 8 -21 8q-20 0 -41 -31q-14 -41 -14 -88z" />
<glyph unicode="&#xc6;" horiz-adv-x="2048" />
<glyph unicode="&#xc7;" horiz-adv-x="1478" />
<glyph unicode="&#xc8;" horiz-adv-x="1046" d="M0 420q0 43 59 115l11 59q-35 156 -17 297q-10 74 -10 133q2 39 31 39q132 0 184 -141q16 -47 16 -109v-4q0 -49 -20 -170q0 -49 -27 -133h4q180 0 308 219q96 139 161 158q27 0 29 -45q0 -133 -174 -338q-84 -86 -188 -127q-115 -53 -121 -64v-10q0 -100 78 -199 q31 -29 73 -28h15q158 0 323 202q51 47 76 48q20 0 45 -48q-22 -95 -141 -196q-115 -86 -293 -168l-33 -4q-166 -57 -303 225l-6 37l6 98v15q0 31 -72 90q-14 22 -14 49zM86 1812q10 14 33 31q184 45 348 -47l10 -6l68 -49q80 -86 37 -162q-6 -14 -33 -16q-106 51 -303 112 q-203 63 -160 137zM193 1219q0 131 456 284l41 2q135 0 135 -59q0 -28 -55 -49q-152 -94 -219 -127q-84 -47 -121 -76q-37 -20 -106 -70l-19 -2q-112 23 -112 97z" />
<glyph unicode="&#xc9;" horiz-adv-x="919" d="M43 420q0 43 59 115l11 59q-35 156 -17 297q-10 74 -10 133q2 39 31 39q132 0 184 -141q16 -47 16 -109v-4q0 -49 -20 -170q0 -49 -27 -133h4q180 0 308 219q96 139 161 158q27 0 29 -45q0 -133 -174 -338q-84 -86 -188 -127q-115 -53 -121 -64v-10q0 -100 78 -199 q31 -29 73 -28h15q158 0 323 202q51 47 76 48q20 0 45 -48q-22 -95 -141 -196q-115 -86 -293 -168l-33 -4q-166 -57 -305 225l-4 37l4 98v15q0 33 -70 90q-14 22 -14 49zM236 1219q0 131 456 284l41 2q135 0 135 -59q0 -28 -55 -49q-152 -94 -219 -127q-84 -47 -121 -76 q-37 -20 -106 -70l-19 -2q-112 23 -112 97zM303 1663l41 72l10 12q111 147 301 178q33 -6 43 -14q68 -53 -94 -193q-147 -123 -233 -221q-25 -10 -39 4q-66 53 -29 162z" />
<glyph unicode="&#xca;" horiz-adv-x="1064" d="M219 420q0 41 62 115l8 59q-35 156 -17 297q-10 74 -10 133q2 39 33 39q131 0 182 -141q18 -53 19 -109v-4q0 -39 -23 -170q0 -57 -24 -133h2q180 0 307 219q96 139 162 158q29 0 30 -45q0 -131 -176 -338q-84 -86 -188 -127q-115 -53 -121 -64v-10q0 -98 80 -199 q31 -29 73 -28h15q158 0 323 202q51 47 74 48q20 0 45 -48q-22 -95 -141 -196q-115 -86 -293 -168l-31 -4q-166 -57 -305 225l-6 37l6 98v15q0 31 -72 90q-14 22 -14 49zM322 1710l4 10l80 172q115 346 305 424l47 11q147 -96 225 -488q-4 -8 -8 -229l2 -4l2 -11 q-8 -20 -98 -69q-88 102 -97 252q-25 199 -53 276l-14 4q-47 -33 -94 -86l-123 -321q-10 -43 -78 -72q-39 10 -100 131zM414 1219q0 131 456 284l39 2q137 0 138 -59q0 -28 -56 -49q-145 -90 -221 -127q-84 -47 -121 -76q-29 -14 -104 -70l-21 -2q-110 21 -110 97z" />
<glyph unicode="&#xcb;" horiz-adv-x="911" d="M55 420q0 41 62 115l8 59q-35 156 -16 297q-10 74 -11 133q2 39 31 39q132 0 184 -141q18 -53 19 -109v-4q0 -39 -23 -170q0 -57 -24 -133h2q180 0 307 219q96 139 162 158q29 0 30 -45q0 -131 -176 -338q-84 -86 -188 -127q-115 -53 -121 -64v-10q0 -98 80 -199 q31 -29 74 -28h14q158 0 324 202q51 47 73 48q20 0 45 -48q-22 -95 -141 -196q-115 -86 -293 -168l-31 -4q-166 -57 -305 225l-6 37l6 98v15q0 31 -71 90q-15 22 -15 49zM182 1593q-31 137 45 181q80 45 170 -43q43 -158 -67.5 -195t-147.5 57zM250 1219q0 131 457 284l38 2 q137 0 138 -59q0 -28 -56 -49q-145 -90 -221 -127q-84 -47 -121 -76q-29 -14 -104 -70l-21 -2q-110 21 -110 97zM580 1651q-31 135 41 178q71 43 153 -43q40 -154 -61 -191q-102 -36 -133 56z" />
<glyph unicode="&#xcc;" horiz-adv-x="600" d="M37 223l4 37t6 64t11.5 113.5l22.5 216l36 341.5v2l33 351q8 78 63 102q66 31 96 29q35 -4 58 -58q6 -100 -2 -166q-43 -381 -91 -669q-45 -279 -38 -475v-5q-12 -111 -43 -131l-27 -22q-37 4 -105 33q-36 128 -24 237zM68 1882q14 10 43 16q186 -31 303 -178l8 -12 l41 -72q39 -109 -29 -161q-12 -10 -37 -5q-100 111 -235 224q-162 137 -94 188z" />
<glyph unicode="&#xcd;" horiz-adv-x="512" d="M10 186l4 37l6.5 64l11.5 113.5l22.5 216l35.5 341.5v5l35 348q10 82 61 104q66 31 97 27q39 -4 59 -56q6 -100 -2 -165q-39 -344 -92 -672q-43 -267 -37 -473v-6q-12 -109 -45 -129l-25 -25q-27 2 -104 35q-39 133 -27 235zM129 1636l43 72l10 12q114 147 301 178 q29 -6 43 -16q68 -51 -94 -188q-135 -113 -235 -224q-25 -6 -39 5q-66 52 -29 161z" />
<glyph unicode="&#xce;" horiz-adv-x="980" d="M133 186l4 37t6 64t11.5 113.5l23 216l35.5 341.5v5l35 348q10 82 61 104q66 31 97 27q39 -4 59 -56q6 -100 -2 -165q-39 -344 -92 -672q-43 -267 -37 -473v-6q-12 -109 -45 -129l-25 -25q-27 2 -104 35q-39 133 -27 235zM143 1546l2 10l82 175q111 344 303 421l48 11 q152 -98 227 -486q-6 -10 -10 -229l2 -4v-12q-10 -23 -97 -70q-86 102 -96 254q-25 209 -53 276l-14 2q-37 -27 -93 -84l-122 -321q-10 -41 -80 -72q-38 9 -99 129z" />
<glyph unicode="&#xcf;" horiz-adv-x="753" d="M33 1571q-33 137 45 180t170 -45q43 -156 -70 -193q-110 -36 -145 58zM162 223q6 68 78 772v2l32 351q8 78 66 102q66 31 94 29q35 -4 57 -58q6 -100 -2 -166q-43 -381 -90 -669q-43 -268 -37 -475l-2 -5q-12 -111 -43 -131l-24 -22q-37 4 -105 33q-36 128 -24 237z M430 1628q-29 137 41 178q72 43 156 -45q37 -158 -64 -190q-102 -35 -133 57z" />
<glyph unicode="&#xd0;" horiz-adv-x="1478" />
<glyph unicode="&#xd1;" horiz-adv-x="1478" />
<glyph unicode="&#xd2;" horiz-adv-x="1021" d="M0 545v43q0 354 135 674q84 127 277 182q106 23 133 22q106 -27 200 -137q133 -164 134 -442q0 -227 -138 -545q-190 -264 -327 -315q-90 -27 -138 -27q-129 0 -223 211q-53 152 -53 334zM188 567q25 -231 105 -321q57 -63 133 -15q74 47 176 230q80 178 80 381 q0 266 -119 385q-18 45 -106 47q-89 3 -191 -172q-80 -256 -78 -535zM262 1939q10 8 43 15q190 -29 303 -178l8 -11l43 -71q37 -111 -28 -164q-12 -8 -37 -2q-92 102 -236 221q-164 139 -96 190z" />
<glyph unicode="&#xd3;" horiz-adv-x="925" d="M0 545v43q0 354 135 674q84 127 277 182q106 23 133 22q106 -27 200 -137q133 -164 134 -442q0 -227 -138 -545q-190 -264 -327 -315q-90 -27 -138 -27q-129 0 -223 211q-53 152 -53 334zM188 567q25 -231 105 -321q57 -63 133 -15q74 47 176 230q80 178 80 381 q0 266 -119 385q-18 45 -106 47q-89 3 -191 -172q-80 -256 -78 -535zM250 1602l41 71l8 10q113 150 303 179q33 -6 43 -15q68 -53 -94 -190q-143 -119 -236 -221q-27 -6 -39 2q-67 51 -26 164z" />
<glyph unicode="&#xd4;" horiz-adv-x="1105" d="M84 545v43q0 354 135 674q84 127 277 182q106 23 133 22q106 -27 200 -137q133 -164 134 -442q0 -227 -138 -545q-190 -264 -327 -315q-90 -27 -138 -27q-129 0 -223 211q-53 152 -53 334zM176 1622l2 12l82 172q111 346 305 424l45 11q150 -98 228 -488q-6 -6 -11 -229 l2 -4l2 -11q-10 -23 -98 -71q-84 100 -94 254q-25 199 -53 276l-15 4q-53 -37 -94 -86l-123 -321q-10 -43 -78 -72q-39 10 -100 129zM272 567q25 -231 105 -321q57 -63 133 -15q74 47 176 230q80 178 80 381q0 266 -119 385q-18 45 -106 47q-89 3 -191 -172 q-80 -256 -78 -535z" />
<glyph unicode="&#xd5;" horiz-adv-x="1003" />
<glyph unicode="&#xd6;" horiz-adv-x="997" d="M0 545v43q0 354 135 674q84 127 277 182q106 23 133 22q106 -27 200 -137q133 -164 134 -442q0 -227 -138 -545q-190 -264 -327 -315q-90 -27 -138 -27q-129 0 -223 211q-53 152 -53 334zM33 1571q-33 137 45 180t170 -45q43 -156 -70 -193q-110 -36 -145 58zM188 567 q25 -231 105 -321q57 -63 133 -15q74 47 176 230q80 178 80 381q0 266 -119 385q-18 45 -106 47q-89 3 -191 -172q-80 -256 -78 -535zM430 1628q-29 137 41 178q72 43 156 -45q37 -158 -64 -190q-102 -35 -133 57z" />
<glyph unicode="&#xd7;" horiz-adv-x="1193" />
<glyph unicode="&#xd8;" horiz-adv-x="1591" />
<glyph unicode="&#xd9;" horiz-adv-x="1261" d="M29 971q0 330 63 407q47 47 78 47q59 -35 90 -264l8 -127l-18 -528q0 -274 127 -328l16 -6h8q92 0 197 322q55 182 55 335q0 45 -41 222l-4 36v7q0 115 90 168l17 4q55 61 112 -86q37 -114 37 -283v-14q0 -340 -133 -625q-126 -230 -307 -295q-102 -29 -125 -29h-8 q-156 18 -189 203q-102 369 -73 834zM201 1806q14 10 43 17q186 -31 303 -181l8 -10l43 -71q37 -109 -29 -162q-14 -10 -39 -4q-92 102 -235 221q-160 139 -94 190z" />
<glyph unicode="&#xda;" horiz-adv-x="946" d="M29 971q0 330 63 407q47 47 78 47q59 -35 90 -264l8 -127l-18 -528q0 -274 127 -328l16 -6h8q92 0 197 322q55 182 55 335q0 45 -41 222l-4 36v7q0 115 90 168l17 4q55 61 112 -86q37 -114 37 -283v-14q0 -340 -133 -625q-126 -230 -307 -295q-102 -29 -125 -29h-8 q-156 18 -189 203q-102 369 -73 834zM334 1587l43 72l8 10q113 150 301 180q33 -6 43 -14q70 -53 -94 -193q-143 -119 -236 -221q-25 -8 -37 4q-65 53 -28 162z" />
<glyph unicode="&#xdb;" horiz-adv-x="972" d="M29 971q0 330 63 407q47 47 78 47q59 -35 90 -264l8 -127l-18 -528q0 -274 127 -328l16 -6h8q92 0 197 322q55 182 55 335q0 45 -41 222l-4 36v7q0 115 90 168l17 4q55 61 112 -86q37 -114 37 -283v-14q0 -340 -133 -625q-126 -230 -307 -295q-102 -29 -125 -29h-8 q-156 18 -189 203q-102 369 -73 834zM123 1554l2 13l82 172q111 346 303 424l47 10q147 -96 225 -487q-8 -10 -8 -230l2 -4v-10q-10 -25 -96 -72q-86 102 -96 254q-25 209 -54 277l-14 4q-41 -29 -92 -86l-125 -322q-10 -41 -78 -72q-37 8 -98 129z" />
<glyph unicode="&#xdc;" horiz-adv-x="1054" d="M29 971q0 330 63 407q47 47 78 47q59 -35 90 -264l8 -127l-18 -528q0 -274 127 -328l16 -6h8q92 0 197 322q55 182 55 335q0 45 -41 222l-4 36v7q0 115 90 168l17 4q55 61 112 -86q37 -114 37 -283v-14q0 -340 -133 -625q-126 -230 -307 -295q-102 -29 -125 -29h-8 q-156 18 -189 203q-102 369 -73 834zM164 1534q-33 137 45 182q78 43 170 -45q43 -158 -70 -194q-110 -37 -145 57zM561 1591q-31 135 39 178q72 43 156 -43q37 -158 -62 -190q-102 -35 -133 55z" />
<glyph unicode="&#xdd;" horiz-adv-x="1363" />
<glyph unicode="&#xde;" horiz-adv-x="1363" />
<glyph unicode="&#xdf;" horiz-adv-x="1249" />
<glyph unicode="&#xe0;" horiz-adv-x="1202" d="M6 1724q25 82 211 -18q160 -88 293 -137q16 -23 10 -37q-25 -80 -139 -86l-82 12l-14 4q-184 53 -279 215q-4 22 0 47zM10 250q-10 465 125 964q58 160 148 160q78 -16 110 -235q59 -287 133 -287h9q41 0 344 186q162 86 249 86l7 -10v-8q25 -80 -31 -135 q-408 -174 -465 -285q-37 -68 -37 -96q29 -63 135 -164q172 -180 230 -264q-31 -59 -78 -60q-100 59 -178 156l-205 193q-43 72 -127 71q-152 20 -201 -143v-111l19 -248q25 -106 -91 -159q-20 -8 -38 -8h-11q-49 47 -34 143zM197 727q20 -31 53 -61l55 18q18 18 43 72 q-15 135 -104 202q-57 -94 -47 -231z" />
<glyph unicode="&#xe1;" horiz-adv-x="1214" d="M231 250q-10 465 125 964q58 160 148 160q78 -16 110 -235q59 -287 134 -287h8q41 0 344 186q162 86 250 86l6 -10v-8q25 -78 -33 -135q-408 -174 -465 -285q-35 -63 -35 -96q29 -63 135 -164q172 -180 230 -264q-31 -59 -78 -60q-100 59 -178 156l-207 193 q-43 72 -125 71q-152 20 -201 -143v-111l19 -248q25 -106 -90 -159q-20 -8 -39 -8h-10q-49 47 -35 143zM283 1571l43 69l8 13q117 152 303 178q33 -6 43 -14q68 -53 -94 -191q-143 -119 -236 -221q-27 -6 -39 2q-65 53 -28 164zM418 727q20 -31 53 -61l55 18q18 18 43 72 q-15 135 -104 202q-57 -94 -47 -231z" />
<glyph unicode="&#xe2;" horiz-adv-x="999" d="M80 1329l2 10l82 174q113 344 305 424l45 11q150 -98 227 -488q-8 -14 -10 -229l2 -4v-13q-10 -23 -94 -69q-86 102 -96 254q-25 199 -54 276l-16 2q-45 -31 -92 -84l-123 -321q-10 -41 -80 -72q-37 9 -98 129zM152 250q-8 457 127 964q58 160 147 160q76 -14 109 -235 q59 -287 135 -287h6q41 0 344 186q163 86 252 86l6 -10v-8q25 -78 -33 -135q-403 -174 -465 -285q-35 -61 -37 -96q29 -63 136 -164q178 -188 231 -264q-31 -59 -80 -60q-98 57 -176 156l-207 193q-41 72 -125 71q-154 23 -200 -143l-3 -111l19 -248q25 -109 -88 -159 q-20 -8 -39 -8h-12q-47 45 -33 143zM338 727q16 -27 55 -61l53 18q18 18 43 72q-15 135 -104 202q-57 -94 -47 -231z" />
<glyph unicode="&#xe3;" horiz-adv-x="964" />
<glyph unicode="&#xe4;" horiz-adv-x="1083" d="M94 1571q-33 137 45 180t170 -45q43 -156 -69 -193q-111 -36 -146 58zM199 250q-8 457 127 964q59 160 145 160q78 -16 111 -235q59 -287 133 -287h8q41 0 344 186q163 86 252 86l6 -10v-8q25 -78 -33 -135q-403 -174 -465 -285q-35 -61 -36 -96q29 -63 135 -164 q172 -180 229 -264q-31 -59 -78 -60q-96 55 -178 156l-205 193q-43 72 -127 71q-152 20 -200 -143v-111l18 -248q25 -109 -88 -159q-20 -8 -41 -8h-10q-51 47 -33 143zM385 727q20 -31 53 -61l56 18q18 18 43 72q-15 135 -105 202q-57 -94 -47 -231zM492 1628 q-29 137 40 178q70 43 154 -45q37 -158 -61 -190q-102 -35 -133 57z" />
<glyph unicode="&#xe5;" horiz-adv-x="958" d="M35 250q-10 465 125 964q58 160 147 160q78 -16 111 -235q59 -287 133 -287h8q41 0 344 186q162 86 250 86l6 -10v-8q25 -80 -31 -135q-408 -174 -464 -285q-37 -68 -37 -96q29 -63 135 -164q172 -180 229 -264q-31 -59 -78 -60q-100 59 -178 156l-205 193 q-43 72 -127 71q-152 20 -200 -143v-111l18 -248q25 -106 -90 -159q-20 -8 -39 -8h-10q-49 47 -35 143zM123 1589v17q0 119 55 225q31 39 113 59l53 8q45 -10 82 -45q53 -57 53 -149q0 -78 -55 -182q-76 -88 -133 -105q-31 -8 -55 -8q-51 0 -91 70q-22 55 -22 110zM221 727 q20 -31 53 -61l56 18q18 18 43 72q-15 135 -105 202q-57 -94 -47 -231zM250 1626q6 -37 20 -51q12 -14 29 -4q12 8 35 39q16 29 16 63q0 43 -24 66q-2 6 -20.5 6t-41.5 -29q-14 -41 -14 -90z" />
<glyph unicode="&#xe6;" horiz-adv-x="1820" />
<glyph unicode="&#xe7;" horiz-adv-x="1024" />
<glyph unicode="&#xe8;" horiz-adv-x="882" d="M0 420q0 43 59 115l11 59q-35 156 -17 297q-10 74 -10 133q2 39 31 39q132 0 184 -141q16 -47 16 -109v-4q0 -49 -20 -170q0 -49 -27 -133h4q180 0 308 219q96 139 161 158q27 0 29 -45q0 -133 -174 -338q-84 -86 -188 -127q-115 -53 -121 -64v-10q0 -100 78 -199 q31 -29 73 -28h15q158 0 323 202q51 47 76 48q20 0 45 -48q-22 -95 -141 -196q-115 -86 -293 -168l-33 -4q-166 -57 -303 225l-6 37l6 98v15q0 31 -72 90q-14 22 -14 49zM86 1812q10 14 33 31q184 45 348 -47l10 -6l68 -49q80 -86 37 -162q-6 -14 -33 -16q-106 51 -303 112 q-203 63 -160 137zM193 1219q0 131 456 284l41 2q135 0 135 -59q0 -28 -55 -49q-152 -94 -219 -127q-84 -47 -121 -76q-37 -20 -106 -70l-19 -2q-112 23 -112 97z" />
<glyph unicode="&#xe9;" horiz-adv-x="894" d="M0 420q0 43 59 115l11 59q-35 156 -17 297q-10 74 -10 133q2 39 31 39q132 0 184 -141q16 -47 16 -109v-4q0 -49 -20 -170q0 -49 -27 -133h4q180 0 308 219q96 139 161 158q27 0 29 -45q0 -133 -174 -338q-84 -86 -188 -127q-115 -53 -121 -64v-10q0 -100 78 -199 q31 -29 73 -28h15q158 0 323 202q51 47 76 48q20 0 45 -48q-22 -95 -141 -196q-115 -86 -293 -168l-33 -4q-166 -57 -303 225l-6 37l6 98v15q0 31 -72 90q-14 22 -14 49zM193 1219q0 131 456 284l41 2q135 0 135 -59q0 -28 -55 -49q-152 -94 -219 -127q-84 -47 -121 -76 q-37 -20 -106 -70l-19 -2q-112 23 -112 97zM244 1606l43 71l8 11q113 150 303 178q31 -6 41 -15q68 -52 -92 -190q-152 -127 -238 -221q-27 -6 -37 2q-65 53 -28 164z" />
<glyph unicode="&#xea;" horiz-adv-x="968" d="M0 420q0 43 59 115l11 59q-35 156 -17 297q-10 74 -10 133q2 39 31 39q132 0 184 -141q16 -47 16 -109v-4q0 -49 -20 -170q0 -49 -27 -133h4q180 0 308 219q96 139 161 158q27 0 29 -45q0 -133 -174 -338q-84 -86 -188 -127q-115 -53 -121 -64v-10q0 -100 78 -199 q31 -29 73 -28h15q158 0 323 202q51 47 76 48q20 0 45 -48q-22 -95 -141 -196q-115 -86 -293 -168l-33 -4q-166 -57 -303 225l-6 37l6 98v15q0 31 -72 90q-14 22 -14 49zM170 1618l2 8l84 127q102 215 299 275l47 8q154 -76 344 -318q-8 -8 -8 -172l2 -2v-8q-8 -14 -98 -51 q-90 78 -99 186q-25 152 -168 164l-14 2q-55 -27 -84 -25l-125 -237q-10 -29 -80 -53q-36 6 -102 96zM193 1219q0 131 456 284l41 2q135 0 135 -59q0 -28 -55 -49q-152 -94 -219 -127q-84 -47 -121 -76q-37 -20 -106 -70l-19 -2q-112 23 -112 97z" />
<glyph unicode="&#xeb;" horiz-adv-x="946" d="M0 420q0 43 59 115l11 59q-35 156 -17 297q-10 74 -10 133q2 39 31 39q132 0 184 -141q16 -47 16 -109v-4q0 -49 -20 -170q0 -49 -27 -133h4q180 0 308 219q96 139 161 158q27 0 29 -45q0 -133 -174 -338q-84 -86 -188 -127q-115 -53 -121 -64v-10q0 -100 78 -199 q31 -29 73 -28h15q158 0 323 202q51 47 76 48q20 0 45 -48q-22 -95 -141 -196q-115 -86 -293 -168l-33 -4q-166 -57 -303 225l-6 37l6 98v15q0 31 -72 90q-14 22 -14 49zM180 1583q-33 137 45 182q78 43 170 -45q43 -158 -67 -194q-113 -37 -148 57zM193 1219q0 131 456 284 l41 2q135 0 135 -59q0 -28 -55 -49q-152 -94 -219 -127q-84 -47 -121 -76q-37 -20 -106 -70l-19 -2q-112 23 -112 97zM578 1640q-29 137 40 179q72 43 156 -43q37 -158 -63 -191q-102 -35 -133 55z" />
<glyph unicode="&#xec;" horiz-adv-x="585" d="M199 186q6 68 77 772v5l35 348q10 80 64 104q66 31 94 27q39 -4 59 -56q6 -100 -2 -165q-45 -387 -90 -672q-45 -279 -39 -473v-6q-12 -109 -45 -129l-24 -25q-27 2 -105 35q-36 129 -24 235zM225 1821q-2 29 4 45q31 82 207 -39q154 -104 279 -166q14 -20 6 -39 q-31 -78 -148 -72l-79 23l-15 6q-174 70 -254 242z" />
<glyph unicode="&#xed;" horiz-adv-x="620" d="M166 186q6 68 78 772v5l35 348q10 80 63 104q66 31 94 27q39 -4 60 -56q6 -100 -2 -165q-45 -387 -91 -672q-45 -279 -38 -473v-6q-12 -109 -46 -129l-24 -25q-27 2 -105 35q-36 129 -24 235zM285 1636l43 72l8 12q114 147 301 178q29 -6 43 -16q68 -51 -94 -188 q-135 -113 -236 -224q-25 -6 -39 5q-63 50 -26 161z" />
<glyph unicode="&#xee;" horiz-adv-x="714" d="M-39 1366l4 10l80 174q115 344 305 422l45 10q152 -98 228 -487q-8 -10 -11 -229l4 -4v-11q-10 -23 -96 -69q-86 102 -96 252q-25 199 -53 276l-15 4q-39 -27 -94 -86l-123 -321q-8 -39 -78 -70q-39 10 -100 129zM66 186l4 37t6 64t11 113.5l22.5 216l35.5 341.5v5 l33 348q10 80 64 104q66 31 96 27q37 -4 57 -56q6 -100 -2 -165q-45 -387 -90 -672q-45 -279 -39 -473v-6q-12 -111 -43 -129l-24 -25q-31 4 -105 35q-38 133 -26 235z" />
<glyph unicode="&#xef;" horiz-adv-x="696" d="M33 1571q-33 137 45 180t170 -45q43 -156 -70 -193q-110 -36 -145 58zM139 186l4 37l6.5 64l11.5 113.5l22.5 216l35.5 341.5v5l33 348q10 80 63 104q63 31 97 27q37 -4 57 -56q6 -100 -2 -165q-45 -387 -90 -672q-43 -267 -37 -473l-2 -6q-12 -108 -43 -129l-27 -25 q-25 2 -102 35q-39 133 -27 235zM430 1628q-29 137 41 178q72 43 156 -45q37 -158 -64 -190q-102 -35 -133 57z" />
<glyph unicode="&#xf0;" horiz-adv-x="1138" />
<glyph unicode="&#xf1;" horiz-adv-x="1138" />
<glyph unicode="&#xf2;" horiz-adv-x="980" d="M0 545v43q0 354 135 674q84 127 277 182q106 23 133 22q106 -27 200 -137q133 -164 134 -442q0 -227 -138 -545q-190 -264 -327 -315q-90 -27 -138 -27q-129 0 -223 211q-53 152 -53 334zM156 1919q10 8 43 14q193 -31 303 -178l8 -10l43 -74q37 -109 -29 -162 q-10 -10 -39 -4q-100 111 -235 224q-160 139 -94 190zM188 567q25 -231 105 -321q57 -63 133 -15q74 47 176 230q80 178 80 381q0 266 -119 385q-18 45 -106 47q-89 3 -191 -172q-80 -256 -78 -535z" />
<glyph unicode="&#xf3;" horiz-adv-x="956" d="M0 545v43q0 354 135 674q84 127 277 182q106 23 133 22q106 -27 200 -137q133 -164 134 -442q0 -227 -138 -545q-190 -264 -327 -315q-90 -27 -138 -27q-129 0 -223 211q-53 152 -53 334zM188 567q25 -231 105 -321q57 -63 133 -15q74 47 176 230q80 178 80 381 q0 266 -119 385q-18 45 -106 47q-89 3 -191 -172q-80 -256 -78 -535zM250 1602l41 71l8 10q113 150 303 179q33 -6 43 -15q68 -53 -94 -190q-143 -119 -236 -221q-27 -6 -39 2q-67 51 -26 164z" />
<glyph unicode="&#xf4;" horiz-adv-x="1103" d="M135 545v43q0 350 137 674q84 127 277 182q106 23 133 22q106 -27 201 -137q131 -162 131 -442q0 -231 -135 -545q-188 -262 -330 -315q-90 -27 -137 -27q-127 0 -222 211q-55 158 -55 334zM301 1608l2 10l82 174q111 344 305 422l45 10q151 -98 228 -485 q-8 -14 -11 -232l4 -4v-10q-10 -25 -96 -72q-86 102 -96 254q-25 203 -53 279l-15 2q-47 -33 -94 -86l-123 -322q-8 -39 -78 -69q-39 10 -100 129zM326 567q25 -233 102 -321q57 -63 133 -15q78 49 178 230q78 174 78 381q0 268 -117 385q-18 45 -106 47q-90 4 -193 -172 q-79 -248 -75 -535z" />
<glyph unicode="&#xf5;" horiz-adv-x="1069" d="M0 545v43q0 354 135 674q84 127 277 182q106 23 133 22q106 -27 200 -137q133 -164 134 -442q0 -227 -138 -545q-190 -264 -327 -315q-90 -27 -138 -27q-129 0 -223 211q-53 152 -53 334zM188 567q25 -231 105 -321q57 -63 133 -15q74 47 176 230q80 178 80 381 q0 266 -119 385q-18 45 -106 47q-89 3 -191 -172q-80 -256 -78 -535z" />
<glyph unicode="&#xf6;" horiz-adv-x="956" d="M0 545v43q0 354 135 674q84 127 277 182q106 23 133 22q106 -27 200 -137q133 -164 134 -442q0 -227 -138 -545q-190 -264 -327 -315q-90 -27 -138 -27q-129 0 -223 211q-53 152 -53 334zM33 1571q-33 137 45 180t170 -45q43 -156 -70 -193q-110 -36 -145 58zM188 567 q25 -231 105 -321q57 -63 133 -15q74 47 176 230q80 178 80 381q0 266 -119 385q-18 45 -106 47q-89 3 -191 -172q-80 -256 -78 -535zM430 1628q-29 137 41 178q72 43 156 -45q37 -158 -64 -190q-102 -35 -133 57z" />
<glyph unicode="&#xf7;" horiz-adv-x="1122" />
<glyph unicode="&#xf8;" horiz-adv-x="1249" />
<glyph unicode="&#xf9;" horiz-adv-x="1042" d="M29 971q0 330 63 407q47 47 78 47q59 -35 90 -264l8 -127l-18 -528q0 -274 127 -328l16 -6h8q92 0 197 322q55 182 55 335q0 45 -41 222l-4 36v7q0 115 90 168l17 4q55 61 112 -86q37 -114 37 -283v-14q0 -340 -133 -625q-126 -230 -307 -295q-102 -29 -125 -29h-8 q-156 18 -189 203q-102 369 -73 834zM201 1806q14 10 43 17q186 -31 303 -181l8 -10l43 -71q37 -109 -29 -162q-14 -10 -39 -4q-92 102 -235 221q-160 139 -94 190z" />
<glyph unicode="&#xfa;" horiz-adv-x="829" d="M29 971q0 330 63 407q47 47 78 47q59 -35 90 -264l8 -127l-18 -528q0 -274 127 -328l16 -6h8q92 0 197 322q55 182 55 335q0 45 -41 222l-4 36v7q0 115 90 168l17 4q55 61 112 -86q37 -114 37 -283v-14q0 -340 -133 -625q-126 -230 -307 -295q-102 -29 -125 -29h-8 q-156 18 -189 203q-102 369 -73 834zM334 1587l43 72l8 10q113 150 301 180q33 -6 43 -14q70 -53 -94 -193q-143 -119 -236 -221q-25 -8 -37 4q-65 53 -28 162z" />
<glyph unicode="&#xfb;" horiz-adv-x="1126" d="M127 971q0 330 63 407q47 47 78 47q57 -33 88 -264l9 -127l-19 -528q0 -274 127 -328l19 -6h8q90 0 194 322q55 182 56 335q0 45 -41 222l-4 36v7q0 115 90 168l16 4q55 61 113 -86q39 -121 39 -283v-14q0 -336 -136 -625q-126 -230 -307 -295q-102 -29 -123 -29h-10 q-154 18 -186 203q-103 369 -74 834zM219 1554l2 13l82 172q111 346 303 424l47 10q150 -98 228 -487q-10 -14 -11 -230l2 -4l2 -10q-10 -23 -98 -72q-84 100 -94 254q-25 203 -55 277l-13 4q-47 -33 -94 -86l-123 -322q-10 -41 -78 -72q-39 8 -100 129z" />
<glyph unicode="&#xfc;" horiz-adv-x="854" d="M29 971q0 330 63 407q47 47 78 47q59 -35 90 -264l8 -127l-18 -528q0 -274 127 -328l16 -6h8q92 0 197 322q55 182 55 335q0 45 -41 222l-4 36v7q0 115 90 168l17 4q55 61 112 -86q37 -114 37 -283v-14q0 -340 -133 -625q-126 -230 -307 -295q-102 -29 -125 -29h-8 q-156 18 -189 203q-102 369 -73 834zM225 1497q-33 137 45 182q78 43 170 -45q43 -156 -67 -192q-113 -37 -148 55zM623 1556q-31 135 41 179q70 43 153 -45q41 -156 -61 -191t-133 57z" />
<glyph unicode="&#xfd;" horiz-adv-x="1024" />
<glyph unicode="&#xfe;" horiz-adv-x="1138" />
<glyph unicode="&#xff;" horiz-adv-x="1024" />
<glyph unicode="&#x152;" horiz-adv-x="2048" />
<glyph unicode="&#x153;" horiz-adv-x="1931" />
<glyph unicode="&#x178;" horiz-adv-x="1363" />
<glyph unicode="&#x2c6;" />
<glyph unicode="&#x2dc;" />
<glyph unicode="&#x2000;" horiz-adv-x="1161" />
<glyph unicode="&#x2001;" horiz-adv-x="2324" />
<glyph unicode="&#x2002;" horiz-adv-x="1161" />
<glyph unicode="&#x2003;" horiz-adv-x="2324" />
<glyph unicode="&#x2004;" horiz-adv-x="774" />
<glyph unicode="&#x2005;" horiz-adv-x="579" />
<glyph unicode="&#x2006;" horiz-adv-x="385" />
<glyph unicode="&#x2007;" horiz-adv-x="385" />
<glyph unicode="&#x2008;" horiz-adv-x="288" />
<glyph unicode="&#x2009;" horiz-adv-x="464" />
<glyph unicode="&#x200a;" horiz-adv-x="126" />
<glyph unicode="&#x2010;" horiz-adv-x="1761" d="M311 678q-6 86 295 110q289 14 697 -4q90 -80 90 -94q6 -82 -185 -94l-241 -14l-29 -2q-367 -18 -596 57q-31 25 -31 41z" />
<glyph unicode="&#x2011;" horiz-adv-x="1761" d="M311 678q-6 86 295 110q289 14 697 -4q90 -80 90 -94q6 -82 -185 -94l-241 -14l-29 -2q-367 -18 -596 57q-31 25 -31 41z" />
<glyph unicode="&#x2012;" horiz-adv-x="1761" d="M311 678q-6 86 295 110q289 14 697 -4q90 -80 90 -94q6 -82 -185 -94l-241 -14l-29 -2q-367 -18 -596 57q-31 25 -31 41z" />
<glyph unicode="&#x2013;" horiz-adv-x="1138" />
<glyph unicode="&#x2014;" horiz-adv-x="2048" />
<glyph unicode="&#x2018;" horiz-adv-x="714" d="M184 1378v15q0 187 129 325q27 14 43 15q86 0 99 -154q0 -152 -105 -373q-16 -23 -33 -22q-83 0 -122 110z" />
<glyph unicode="&#x2019;" horiz-adv-x="634" d="M223 1378v15q0 187 129 325q27 14 43 15q86 0 99 -154q0 -152 -105 -373q-16 -23 -33 -22q-83 0 -123 110z" />
<glyph unicode="&#x201a;" horiz-adv-x="333" d="M12 37v12q0 188 129 328q23 12 43 12q84 0 97 -151q0 -152 -105 -373q-16 -23 -31 -23q-82 0 -122 113z" />
<glyph unicode="&#x201c;" horiz-adv-x="960" d="M96 1358v10q0 163 117 283q25 12 41 12q78 0 88 -133q0 -129 -96 -322q-14 -16 -29 -16q-78 0 -111 94zM440 1507q0 172 99 244l10 4q129 -35 129 -211v-10q0 -176 -119 -219l-16 -4q-103 24 -103 196z" />
<glyph unicode="&#x201d;" horiz-adv-x="956" d="M209 1360v10q0 154 113 266q20 10 38 11q76 0 84 -125q0 -127 -90 -301q-14 -18 -28 -19q-74 0 -109 90zM545 1493q0 174 96 244l12 4q129 -33 129 -211v-12q0 -176 -118 -220l-19 -2q-100 25 -100 197z" />
<glyph unicode="&#x201e;" horiz-adv-x="724" d="M-57 -25q0 187 129 326q27 14 43 14q84 0 96 -153q0 -152 -105 -373q-14 -20 -30 -20q-84 0 -121 110l-12 82v14zM311 162q0 174 97 244l12 4q129 -33 129 -211v-13q0 -174 -121 -217l-16 -4q-101 25 -101 197z" />
<glyph unicode="&#x2022;" horiz-adv-x="716" />
<glyph unicode="&#x2026;" horiz-adv-x="1503" d="M213 66q-37 158 51 206q90 49 193 -51q49 -180 -78 -220.5t-166 65.5zM625 59q-35 158 45 203q82 47 176 -49q43 -178 -70 -217q-114 -41 -151 63zM1040 74q-33 156 47 205t177 -52q43 -178 -70 -217q-117 -40 -154 64z" />
<glyph unicode="&#x202f;" horiz-adv-x="464" />
<glyph unicode="&#x2039;" />
<glyph unicode="&#x203a;" />
<glyph unicode="&#x205f;" horiz-adv-x="579" />
<glyph unicode="&#x20ac;" horiz-adv-x="1138" />
<glyph unicode="&#x2122;" horiz-adv-x="2048" />
<glyph unicode="&#xf001;" horiz-adv-x="1024" />
<glyph unicode="&#xfb01;" horiz-adv-x="1024" />
<glyph unicode="&#xf002;" horiz-adv-x="1024" />
<glyph unicode="&#xfb02;" horiz-adv-x="1024" />
<glyph unicode="&#xfb03;" horiz-adv-x="2480" d="M2136 168q8 172 28 774v4l11 350q2 80 57 109q63 33 94 33q37 -4 60 -54q11 -81 10 -138v-25q-18 -387 -47 -676q-16 -152 -16 -283q0 -102 10 -192v-7q-4 -109 -35 -131l-25 -24q-33 0 -106 24q-41 113 -42 221q1 7 1 15zM1088 330q-2 51 -2 99q0 84 6 157v12 q60 299 113 299h2q70 8 71 45l8 66l13 239q37 117 102 154q76 81 216 81q19 0 38 -1h4q182 -18 203 -121v-2q0 -29 -270 -33q-59 -12 -95 -68q-37 -78 -41 -172l17 -57q-11 -92 -11 -192q0 -152 25 -324q70 25 168 90q375 199 490 221q18 0 18 -145q-227 -84 -672 -352 q-27 -35 -33 -99l-6 -196q-10 -96 -92 -123l-47 -2h-2q-137 8 -223 424zM1221 524q20 -131 82 -137h1q31 0 32 110v21q3 44 3 79q0 120 -42 122q-68 -74 -76 -195zM1252 199q-1 -6 -1 -12q0 -66 64 -113q16 -4 29 112q1 14 1 27q0 78 -52 86h-1q-19 0 -40 -100zM76 330 q-2 51 -2 99q0 84 6 157v12q60 299 113 299h2q70 8 71 45l8 66l13 239q37 117 102 154q76 81 216 81q19 0 38 -1h4q182 -18 203 -121v-2q0 -29 -270 -33q-59 -12 -95 -68q-37 -78 -41 -172l17 -57q-11 -92 -11 -192q0 -152 25 -324q70 25 168 90q375 199 490 221 q18 0 18 -145q-227 -84 -672 -352q-27 -35 -33 -99l-6 -196q-10 -96 -92 -123l-47 -2h-2q-137 8 -223 424zM209 524q20 -131 82 -137h1q31 0 32 110v21q3 44 3 79q0 120 -42 122q-68 -74 -76 -195zM240 199q-1 -6 -1 -12q0 -66 64 -113q16 -4 29 112q1 14 1 27q0 78 -52 86 h-1q-19 0 -40 -100z" />
<glyph unicode="&#xfb04;" horiz-adv-x="2906" d="M2136 213q0 350 110 1241q29 41 72 41q84 0 102 -197v-2q-57 -625 -73 -913q-20 -94 -21 -170q0 -90 62 -115l18 -2h10q76 0 314 113q84 23 118 22h11q74 0 123 -69q0 -80 -224 -160q-262 -158 -391 -158q-113 0 -203 133q-28 68 -28 236zM1088 330q-2 51 -2 99 q0 84 6 157v12q60 299 113 299h2q70 8 71 45l8 66l13 239q37 117 102 154q76 81 216 81q19 0 38 -1h4q182 -18 203 -121v-2q0 -29 -270 -33q-59 -12 -95 -68q-37 -78 -41 -172l17 -57q-11 -92 -11 -192q0 -152 25 -324q70 25 168 90q375 199 490 221q18 0 18 -145 q-227 -84 -672 -352q-27 -35 -33 -99l-6 -196q-10 -96 -92 -123l-47 -2h-2q-137 8 -223 424zM1221 524q20 -131 82 -137h1q31 0 32 110v21q3 44 3 79q0 120 -42 122q-68 -74 -76 -195zM1252 199q-1 -6 -1 -12q0 -66 64 -113q16 -4 29 112q1 14 1 27q0 78 -52 86h-1 q-19 0 -40 -100zM76 330q-2 51 -2 99q0 84 6 157v12q60 299 113 299h2q70 8 71 45l8 66l13 239q37 117 102 154q76 81 216 81q19 0 38 -1h4q182 -18 203 -121v-2q0 -29 -270 -33q-59 -12 -95 -68q-37 -78 -41 -172l17 -57q-11 -92 -11 -192q0 -152 25 -324q70 25 168 90 q375 199 490 221q18 0 18 -145q-227 -84 -672 -352q-27 -35 -33 -99l-6 -196q-10 -96 -92 -123l-47 -2h-2q-137 8 -223 424zM209 524q20 -131 82 -137h1q31 0 32 110v21q3 44 3 79q0 120 -42 122q-68 -74 -76 -195zM240 199q-1 -6 -1 -12q0 -66 64 -113q16 -4 29 112 q1 14 1 27q0 78 -52 86h-1q-19 0 -40 -100z" />
</font>
</defs>
</svg>
